<svg id="paid_black_24dp_4_" data-name="paid_black_24dp (4)" xmlns="http://www.w3.org/2000/svg" width="183" height="183" viewBox="0 0 183 183">
  <g id="Grupo_186" data-name="Grupo 186">
    <rect id="Rectángulo_58" data-name="Rectángulo 58" width="183" height="183" fill="none"/>
  </g>
  <g id="Grupo_187" data-name="Grupo 187" transform="translate(15.276 15.108)">
    <path id="Trazado_186" data-name="Trazado 186" d="M78.381,2a76.381,76.381,0,1,0,76.381,76.381A76.409,76.409,0,0,0,78.381,2Zm0,137.486a61.105,61.105,0,1,1,61.105-61.105A61.186,61.186,0,0,1,78.381,139.486Zm6.8-67.979C71.583,67,65.015,64.174,65.015,56.995c0-7.791,8.478-10.617,13.825-10.617A14.759,14.759,0,0,1,93.352,56.613L105.42,51.5A26.164,26.164,0,0,0,85.1,34.462V24.914H71.736v9.624C51.877,38.816,51.724,56.307,51.724,57.147c0,17.339,17.186,22.227,25.588,25.282C89.38,86.707,94.727,90.6,94.727,97.935c0,8.631-8.02,12.3-15.123,12.3-13.9,0-17.873-14.283-18.332-15.964L48.593,99.386C53.4,116.114,66.008,120.62,71.66,122v9.853H85.026v-9.471c3.972-.687,23.067-4.507,23.067-24.595C108.17,87.165,103.511,77.847,85.179,71.507Z" transform="translate(-2 -2)" fill="#545454"/>
  </g>
</svg>
