<svg xmlns="http://www.w3.org/2000/svg" xmlns:xlink="http://www.w3.org/1999/xlink" width="1194" height="1151" viewBox="0 0 1194 1151">
  <defs>
    <clipPath id="clip-path">
      <rect id="Rectángulo_15" data-name="Rectángulo 15" width="1194" height="1151" transform="translate(508.233 236.114)" fill="#fff" stroke="#707070" stroke-width="1"/>
    </clipPath>
  </defs>
  <g id="Enmascarar_grupo_1" data-name="Enmascarar grupo 1" transform="translate(-508.233 -236.114)" opacity="0.36" clip-path="url(#clip-path)">
    <g id="Grupo_14" data-name="Grupo 14" transform="translate(538.389 236.407)">
      <path id="Trazado_1" data-name="Trazado 1" d="M1527.263-20.817a515.367,515.367,0,0,0-465.17,205.984,503.1,503.1,0,0,0-31.52,47.782A518.583,518.583,0,0,0,988.011,326.7c-1.607,4.417-3.013,9.034-4.418,13.652a503.332,503.332,0,0,0-20.678,102.39c-.2-4.417-.4-9.034-.4-13.652V762.362S952.275,842.467,879,908.719c-47.782,43.164-122.265,80.305-238.507,85.124-8.432.4-17.266.6-26.1.6v-526.4a8.35,8.35,0,0,1,1.406-2.208,164.639,164.639,0,0,1-.8-17.466q-.6-9.637-.6-19.273c0-313.392,254.168-567.358,567.358-567.358A563.887,563.887,0,0,1,1527.263-20.817Z" transform="translate(-614.389 138.264)" fill="#132951"/>
      <path id="Trazado_2" data-name="Trazado 2" d="M1386.273,274.9c0,170.047-74.885,322.627-193.335,426.422,37.341-118.852,32.123-251.557-24.9-373.22-54-115.238-144.951-201.165-252.561-249.951-3.613-1.807-7.227-3.413-10.841-5.019l-1.2-.6a99.322,99.322,0,0,0-9.837-3.814,220.467,220.467,0,0,0-74.686-13.05,219.3,219.3,0,0,0-185.5,102.59A506.794,506.794,0,0,1,721.142,31.37,516.471,516.471,0,0,1,1234.5-111.172,563.959,563.959,0,0,1,1386.273,274.9Z" transform="translate(-251.556 292.462)" fill="#132951"/>
      <path id="Trazado_3" data-name="Trazado 3" d="M1062.49,383.054c-6.424,5.822-13.049,11.243-19.875,16.463L1039,402.528c-62.437,47.38-134.31,82.514-213.212,100.984a528.322,528.322,0,0,1-94.961,14.053c-12.045,1-24.293,1.405-36.539,1.405-14.252,0-28.507-.6-42.561-1.807a352.817,352.817,0,0,1-10.239-59.225,402.186,402.186,0,0,1-.6-62.839C645.7,326.037,670.4,238.906,749.9,164.623l8.834-3.413.8-.2a172.568,172.568,0,0,0,22.084-8.432l1.4-.6,3.814-1.405,4.217-2.208,10.641-5.42,18.872-12.046,16.864-13.251,2.61-2.008,9.235-9.034,3.011-2.811,7.428-8.03,3.814-4.818,5.421-6.826,7.228-10.038,1-1.2,3.213-5.421,7.027-11.845,5.22-10.841,3.814-7.83L900.273,26.9l1.2-3.011,1.2-4.216L906.5,7.023l3.413-15.86.6-2.61.4-3.614,2.007-16.262.6-14.053v-3.012c0-5.019-.2-10.038-.6-14.857l-.2-2.208v-2.208l-.4-3.212a226.074,226.074,0,0,0-8.432-42.361,516.087,516.087,0,0,1,158.6,496.288Z" transform="translate(-126.931 615.746)" fill="#132951"/>
    </g>
  </g>
</svg>
