<svg id="date_range_black_24dp" xmlns="http://www.w3.org/2000/svg" width="52.563" height="52.563" viewBox="0 0 52.563 52.563">
  <path id="Trazado_112" data-name="Trazado 112" d="M0,0H52.563V52.563H0Z" fill="none"/>
  <path id="Trazado_113" data-name="Trazado 113" d="M11.76,21.711h4.38v4.38H11.76ZM42.422,10.76V41.422a4.393,4.393,0,0,1-4.38,4.38H7.38A4.379,4.379,0,0,1,3,41.422L3.022,10.76A4.36,4.36,0,0,1,7.38,6.38H9.57V2h4.38V6.38H31.472V2h4.38V6.38h2.19A4.393,4.393,0,0,1,42.422,10.76ZM7.38,15.141H38.042V10.76H7.38ZM38.042,41.422v-21.9H7.38v21.9Zm-8.76-15.331h4.38v-4.38h-4.38Zm-8.76,0H24.9v-4.38h-4.38Z" transform="translate(3.57 2.38)" fill="#fff"/>
</svg>
