<svg xmlns="http://www.w3.org/2000/svg" width="49.766" height="46.687" viewBox="0 0 49.766 46.687">
  <path id="Trazado_66" data-name="Trazado 66" d="M2117.772,222.125v46.687h-49.766V222.125Zm-2.94,11.707h-43.917v32.032h2.992v-.6q0-7.562,0-15.124a3.108,3.108,0,0,1,.07-.964c.262-.785.587-1.548.911-2.384a4.423,4.423,0,0,1-.2-5.321c1.126-1.892,2.208-3.811,3.31-5.717.083-.144.177-.282.3-.48,1.336,2.327,2.642,4.564,3.9,6.825a3.459,3.459,0,0,1,.367,2.637,24.23,24.23,0,0,1-.905,2.34,4.771,4.771,0,0,1,1,3.24c-.02,4.992-.008,9.985-.008,14.978v.569h2.945V236.743h14.578V265.87h2.9v-.592q0-7.61.005-15.221a2.618,2.618,0,0,1,.117-.808q2.023-6.106,4.066-12.206c.045-.137.1-.27.189-.5.077.2.109.268.135.344q2.08,6.24,4.154,12.483a2.161,2.161,0,0,1,.084.667q.007,7.635,0,15.269v.559h2.992Zm-8.84-5.9h-2.924v-2.864h-2.907v2.857h-2.924v-2.854h-26.311v5.773h43.89v-5.773h-2.991v2.866h-2.907v-2.859h-2.925Zm-17.466,23.384v2.925h2.863v2.908h-2.856v2.925h2.849V263h-2.858v2.862h8.689v-26.2h-8.683v2.915h2.858v2.908h-2.851v2.925h2.844v2.908Zm-8.784,14.557V254.322q0-2.186,0-4.373a1.462,1.462,0,1,0-2.917.03q-.007,7.775,0,15.549c0,.109.011.217.018.345Zm26.3-14.547V265.87h2.856V251.325Zm-27.754-10.241c-.482.843-.93,1.572-1.322,2.33a1.412,1.412,0,0,0,.425,1.743,1.443,1.443,0,0,0,1.758.022,1.4,1.4,0,0,0,.471-1.729C2079.226,242.675,2078.768,241.935,2078.284,241.084Zm30.066,7.289c-.291-.869-.564-1.687-.839-2.505l-.113.024-.821,2.481Z" transform="translate(-2068.006 -222.125)" fill="#fff"/>
</svg>
