<svg xmlns="http://www.w3.org/2000/svg" width="20.349" height="21.015" viewBox="0 0 20.349 21.015">
  <g id="Grupo_30" data-name="Grupo 30" transform="translate(0 21.015) rotate(-90)">
    <path id="Trazado_4" data-name="Trazado 4" d="M0,18.277V0H9.621a12.054,12.054,0,0,1,8.25,2.756,9.366,9.366,0,0,1,3.145,7.42,9.362,9.362,0,0,1-3.145,7.415,12.054,12.054,0,0,1-8.25,2.758H2.072a1.992,1.992,0,0,1-1.46-.609A1.993,1.993,0,0,1,0,18.277Zm5.772-2.515H9.4a5.85,5.85,0,0,0,4.2-1.5,5.412,5.412,0,0,0,1.571-4.108A5.345,5.345,0,0,0,13.6,6.067,5.884,5.884,0,0,0,9.4,4.586H1.666L5.772,6.809Z" fill="#fff"/>
  </g>
</svg>
