<svg xmlns="http://www.w3.org/2000/svg" width="118.478" height="44.206" viewBox="0 0 118.478 44.206">
  <g id="Grupo_133" data-name="Grupo 133" transform="translate(-744.557 -459.125)">
    <path id="Trazado_1" data-name="Trazado 1" d="M744.564,472.047c-.527-.729,28.025-21.781,36.436-8.583,4.142,6.5-3.628,19.656-12.114,27.564-8.648,8.061-19.681,13.086-19.984,12.2-2.723-7.832-4.176-20.4-3.59-20.534s3.243,16.311,6.069,15.941c2.939-.384,15.4-6.283,19.735-17.666,3.967-10.4-5.032-15.307-15.514-13.1-7.156,1.5-10.85,4.437-11.038,4.177Zm0,0" transform="translate(0 0)" fill="#c32128"/>
    <path id="Trazado_2" data-name="Trazado 2" d="M888.421,496.13a3.9,3.9,0,0,0-3.267,1.653,8.218,8.218,0,0,0,.032,8.748,3.885,3.885,0,0,0,3.235,1.7,3.838,3.838,0,0,0,3.234-1.66,7.28,7.28,0,0,0,1.228-4.425,7.089,7.089,0,0,0-1.243-4.367,3.859,3.859,0,0,0-3.219-1.653Zm4.431-9.7h2.729v23.407h-2.665l.065-2.8a5.364,5.364,0,0,1-5.313,3.452,5.892,5.892,0,0,1-4.768-2.366,9.218,9.218,0,0,1-1.911-5.98,9.069,9.069,0,0,1,1.893-5.94,6,6,0,0,1,4.849-2.312,5.911,5.911,0,0,1,3.034.779,5.594,5.594,0,0,1,2.118,2.239Zm0,0" transform="translate(-99.146 -19.846)" fill="#1a2f5b" stroke="rgba(0,0,0,0)" stroke-width="1"/>
    <rect id="Rectángulo_3" data-name="Rectángulo 3" width="2.729" height="15.283" transform="translate(801.475 474.742)" fill="#1a2f5b" stroke="rgba(0,0,0,0)" stroke-width="1"/>
    <path id="Trazado_5" data-name="Trazado 5" d="M972.036,516.269h3.017l5.009,12.49h.128l5.025-12.49h3.033l-6.773,15.283h-2.665Zm0,0" transform="translate(-165.31 -41.527)" fill="#1a2f5b" stroke="rgba(0,0,0,0)" stroke-width="1"/>
    <rect id="Rectángulo_5" data-name="Rectángulo 5" width="2.729" height="15.283" transform="translate(825.539 474.742)" fill="#1a2f5b" stroke="rgba(0,0,0,0)" stroke-width="1"/>
    <path id="Trazado_6" data-name="Trazado 6" d="M1077.348,519.135h-2.6a2.926,2.926,0,0,0-1.012-2.222,3.807,3.807,0,0,0-2.567-.828,4.382,4.382,0,0,0-2.521.68,2,2,0,0,0-1,1.679,1.686,1.686,0,0,0,.747,1.437,8.011,8.011,0,0,0,2.771.97,12.8,12.8,0,0,1,4.878,1.784,3.4,3.4,0,0,1,1.364,2.858,4.386,4.386,0,0,1-1.764,3.65,7.513,7.513,0,0,1-4.735,1.372,7.381,7.381,0,0,1-4.792-1.428,5.843,5.843,0,0,1-2.049-4.092h2.73a3.17,3.17,0,0,0,1.052,2.471,3.955,3.955,0,0,0,2.753.946,4.571,4.571,0,0,0,2.7-.746,2.265,2.265,0,0,0,1.051-1.918q0-1.734-3.434-2.6-.822-.21-1.269-.321a11.153,11.153,0,0,1-3.829-1.669,2.857,2.857,0,0,1-1.068-2.312,4.286,4.286,0,0,1,1.669-3.549,7.1,7.1,0,0,1,4.511-1.317,7.2,7.2,0,0,1,4.64,1.358,4.814,4.814,0,0,1,1.765,3.8Zm0,0" transform="translate(-232.192 -39.865)" fill="#1a2f5b" stroke="rgba(0,0,0,0)" stroke-width="1"/>
    <path id="Trazado_9" data-name="Trazado 9" d="M1134.015,521.093a11.6,11.6,0,0,1-4.382,1.494c-.75.128-1.305.242-1.669.337a3.253,3.253,0,0,0-1.709.971,2.676,2.676,0,0,0,.409,3.756,4.065,4.065,0,0,0,2.617.8,4.321,4.321,0,0,0,3.62-1.461,7.493,7.493,0,0,0,1.146-4.624c0-.341,0-.6-.007-.778s-.013-.34-.024-.491Zm2.6-1.06v5.814a14.332,14.332,0,0,0,.152,2.231,9.642,9.642,0,0,0,.474,1.812h-2.905c-.086-.416-.157-.818-.216-1.2a9.4,9.4,0,0,1-.1-1.092,8.376,8.376,0,0,1-2.616,2.214,6.621,6.621,0,0,1-3.066.706,5.625,5.625,0,0,1-3.965-1.372,4.6,4.6,0,0,1-1.493-3.555,3.836,3.836,0,0,1,1.4-3.195,10.044,10.044,0,0,1,4.719-1.574,12.876,12.876,0,0,0,3.781-.922,1.555,1.555,0,0,0,.843-1.421,2.083,2.083,0,0,0-1.019-1.751,4.448,4.448,0,0,0-2.594-.705,3.993,3.993,0,0,0-2.425.682,3.376,3.376,0,0,0-1.252,2.016H1123.5a5.6,5.6,0,0,1,2.209-3.573,7.953,7.953,0,0,1,4.6-1.164q3.371,0,4.837,1.389t1.47,4.662Zm0,0" transform="translate(-274.925 -39.865)" fill="#1a2f5b" stroke="rgba(0,0,0,0)" stroke-width="1"/>
    <rect id="Rectángulo_2" data-name="Rectángulo 2" width="2.729" height="15.283" transform="translate(801.475 474.742)" fill="#1a2f5b"/>
    <path id="Trazado_4" data-name="Trazado 4" d="M972.036,516.269h3.017l5.009,12.49h.128l5.025-12.49h3.033l-6.773,15.283h-2.665Zm0,0" transform="translate(-165.31 -41.527)" fill="#1a2f5b"/>
    <rect id="Rectángulo_4" data-name="Rectángulo 4" width="2.729" height="15.283" transform="translate(825.539 474.742)" fill="#1a2f5b"/>
    <path id="Trazado_8" data-name="Trazado 8" d="M1134.015,521.093a11.6,11.6,0,0,1-4.382,1.494c-.75.128-1.305.242-1.669.337a3.253,3.253,0,0,0-1.709.971,2.676,2.676,0,0,0,.409,3.756,4.065,4.065,0,0,0,2.617.8,4.321,4.321,0,0,0,3.62-1.461,7.493,7.493,0,0,0,1.146-4.624c0-.341,0-.6-.007-.778s-.013-.34-.024-.491Zm2.6-1.06v5.814a14.332,14.332,0,0,0,.152,2.231,9.642,9.642,0,0,0,.474,1.812h-2.905c-.086-.416-.157-.818-.216-1.2a9.4,9.4,0,0,1-.1-1.092,8.376,8.376,0,0,1-2.616,2.214,6.621,6.621,0,0,1-3.066.706,5.625,5.625,0,0,1-3.965-1.372,4.6,4.6,0,0,1-1.493-3.555,3.836,3.836,0,0,1,1.4-3.195,10.044,10.044,0,0,1,4.719-1.574,12.876,12.876,0,0,0,3.781-.922,1.555,1.555,0,0,0,.843-1.421,2.083,2.083,0,0,0-1.019-1.751,4.448,4.448,0,0,0-2.594-.705,3.993,3.993,0,0,0-2.425.682,3.376,3.376,0,0,0-1.252,2.016H1123.5a5.6,5.6,0,0,1,2.209-3.573,7.953,7.953,0,0,1,4.6-1.164q3.371,0,4.837,1.389t1.47,4.662Zm0,0" transform="translate(-274.925 -39.865)" fill="#1a2f5b"/>
    <g id="Grupo_1" data-name="Grupo 1" transform="translate(782.095 492.714)">
      <path id="Trazado_18" data-name="Trazado 18" d="M887.79,583.114a3.739,3.739,0,0,1,0,5.086,3.3,3.3,0,0,1-4.892,0,3.765,3.765,0,0,1,0-5.086,3.3,3.3,0,0,1,4.892,0Zm-.61,2.548a2.166,2.166,0,0,0-.552-1.463,1.717,1.717,0,0,0-2.558,0,2.173,2.173,0,0,0,0,2.916,1.716,1.716,0,0,0,2.558,0A2.177,2.177,0,0,0,887.18,585.662Z" transform="translate(-881.91 -582.029)" fill="#c32128"/>
      <path id="Trazado_19" data-name="Trazado 19" d="M920.189,582.136h1.618V589.4h-1.753l-2.644-4.5v4.5h-1.618v-7.265h1.618l2.78,4.727Z" transform="translate(-906.531 -582.107)" fill="#c32128"/>
      <path id="Trazado_20" data-name="Trazado 20" d="M951.979,582.1v1.618h-2.887v1.192h2.344v1.627h-2.344v1.2h2.887v1.617h-4.5V582.1Z" transform="translate(-929.556 -582.081)" fill="#c32128"/>
    </g>
  </g>
</svg>
