<svg xmlns="http://www.w3.org/2000/svg" width="58.247" height="58.247" viewBox="0 0 58.247 58.247">
  <path id="Trazado_136" data-name="Trazado 136" d="M477.283,76.33a15.28,15.28,0,0,0-15.236-15.235H434.273A15.281,15.281,0,0,0,419.036,76.33V104.1a15.281,15.281,0,0,0,15.237,15.237h9.336V99.593h-7.394V91.176h7.394V84.758c0-7.3,4.348-11.33,11-11.33a44.9,44.9,0,0,1,6.519.568v7.169h-3.673c-3.617,0-4.747,2.245-4.747,4.547v5.464h8.077L459.5,99.593H452.71v19.749h9.338a15.28,15.28,0,0,0,15.236-15.235Z" transform="translate(-419.036 -61.095)" fill="#262626"/>
</svg>
