<svg xmlns="http://www.w3.org/2000/svg" width="49.766" height="47.798" viewBox="0 0 49.766 47.798">
  <g id="Grupo_47" data-name="Grupo 47" transform="translate(0)">
    <path id="Trazado_44" data-name="Trazado 44" d="M1128.562,260.342a1.354,1.354,0,0,1-1.369.694q-23.515-.016-47.03-.009c-1.065,0-1.366-.3-1.366-1.35q0-4.64,0-9.28c0-.971.341-1.314,1.317-1.314q23.563,0,47.127-.005a1.245,1.245,0,0,1,1.321.766Zm-1.958-9.278H1080.77v7.984H1126.6Z" transform="translate(-1078.796 -249.078)" fill="#fff"/>
    <path id="Trazado_45" data-name="Trazado 45" d="M1261.655,554.609a1.215,1.215,0,0,1-1.273.765q-14.385-.008-28.769,0c-.921,0-1.272-.347-1.273-1.252q0-4.738,0-9.476c0-.895.335-1.225,1.236-1.226q14.409,0,28.818-.009a1.276,1.276,0,0,1,1.261.705Zm-1.975-1.208v-8.011h-27.354V553.4Z" transform="translate(-1211.889 -507.577)" fill="#fff"/>
    <path id="Trazado_46" data-name="Trazado 46" d="M1365.737,378.968a1.239,1.239,0,0,1-1.284.745q-7.165-.013-14.33-.007c-.91,0-1.274-.361-1.274-1.259q0-9.3,0-18.6c0-.881.361-1.253,1.231-1.254q7.214-.008,14.427-.006a1.206,1.206,0,0,1,1.23.752Zm-1.977-1.228V360.567h-12.93V377.74Z" transform="translate(-1315.971 -345.252)" fill="#fff"/>
    <path id="Trazado_47" data-name="Trazado 47" d="M1095.423,379.73h-14.236c-1.231,0-1.5-.274-1.5-1.523V360.085c0-1.18.291-1.477,1.45-1.477h28.569c1.147,0,1.451.3,1.451,1.427q0,9.135,0,18.269c0,1.13-.3,1.427-1.449,1.427Zm13.763-19.148h-27.516v15.939c.151-.166.249-.271.343-.379q2.86-3.308,5.719-6.616c.73-.843,1.257-.841,1.981-.005,1.4,1.615,2.794,3.232,4.23,4.893.555-.739,1.088-1.447,1.619-2.156q2.216-2.953,4.432-5.905a.981.981,0,0,1,1.7-.023c.081.1.157.206.234.31q3.454,4.6,6.908,9.209c.091.122.192.237.347.428Zm-15.313,17.171h13.9a1.339,1.339,0,0,0-.1-.2c-1.2-1.606-2.4-3.216-3.619-4.808a.818.818,0,0,0-.577-.229c-1.683-.018-3.366-.01-5.049-.01-.688,0-.954.2-1.2.926,1.028,0,2.045-.012,3.062,0a.974.974,0,0,1,1.043.929,1.008,1.008,0,0,1-.984,1,3.894,3.894,0,0,1-.437.009c-1.294,0-2.589,0-3.884.006a.685.685,0,0,0-.476.14C1095,376.225,1094.468,376.957,1093.873,377.754Zm-5.15-6.406-5.487,6.358a.808.808,0,0,0,.17.071q3.884.006,7.767,0a.475.475,0,0,0,.336-.135c.419-.53.818-1.076,1.238-1.637Zm10.579-.838h3.1l-1.548-2.063Z" transform="translate(-1079.578 -345.274)" fill="#fff"/>
    <path id="Trazado_48" data-name="Trazado 48" d="M1088.177,543.473q3.547,0,7.094,0c.985,0,1.306.324,1.306,1.315q0,4.665,0,9.329c0,.962-.352,1.31-1.325,1.31q-7.119,0-14.237,0c-.99,0-1.331-.349-1.332-1.354q0-4.64,0-9.281c0-.991.324-1.319,1.3-1.32Q1084.582,543.47,1088.177,543.473Zm-6.522,9.968H1094.6v-7.99h-12.945Z" transform="translate(-1079.575 -507.634)" fill="#fff"/>
    <path id="Trazado_49" data-name="Trazado 49" d="M1164.052,306.707q-4.832,0-9.663,0a2.8,2.8,0,0,1-.624-.058.922.922,0,0,1-.744-.989.949.949,0,0,1,.88-.881,4.572,4.572,0,0,1,.485-.013h19.375c.906,0,1.358.31,1.375.94.017.652-.461,1-1.372,1Z" transform="translate(-1143.983 -297.984)" fill="#fff"/>
    <path id="Trazado_50" data-name="Trazado 50" d="M1398.884,272.552a2.979,2.979,0,0,1,1.852-2.617,3.029,3.029,0,0,1,3.375.6,2.958,2.958,0,0,1,.773,3.247.544.544,0,0,0,.15.678,4.212,4.212,0,0,1,.591.639.93.93,0,0,1-.1,1.237.964.964,0,0,1-1.2.1.4.4,0,0,1-.118-.083c-.471-.689-1.06-.706-1.854-.558A3.045,3.045,0,0,1,1398.884,272.552Zm1.948.22a1.171,1.171,0,0,0,1.138,1.151,1.153,1.153,0,1,0-.01-2.306A1.164,1.164,0,0,0,1400.832,272.773Z" transform="translate(-1359.918 -267.157)" fill="#fff"/>
    <path id="Trazado_51" data-name="Trazado 51" d="M1350.145,304.865a.936.936,0,0,1,.982.919.987.987,0,0,1-.964,1.008.969.969,0,0,1-.955-.964A.933.933,0,0,1,1350.145,304.865Z" transform="translate(-1316.289 -298.073)" fill="#fff"/>
    <path id="Trazado_52" data-name="Trazado 52" d="M1306.373,586.405q-3.959,0-7.918,0c-.691,0-1.063-.261-1.159-.787a.9.9,0,0,1,.662-1.081,2.421,2.421,0,0,1,.623-.072q7.8-.006,15.592,0a2.605,2.605,0,0,1,.624.067.909.909,0,0,1,.7.972.93.93,0,0,1-.821.881,3.945,3.945,0,0,1-.533.02Q1310.259,586.407,1306.373,586.405Z" transform="translate(-1270.682 -543.634)" fill="#fff"/>
    <path id="Trazado_53" data-name="Trazado 53" d="M1268.8,585.584a.942.942,0,0,1-.925.976.962.962,0,0,1-1-.917.948.948,0,0,1,.957-1A.936.936,0,0,1,1268.8,585.584Z" transform="translate(-1243.986 -543.796)" fill="#fff"/>
    <path id="Trazado_54" data-name="Trazado 54" d="M1380.852,421.768c-1.343,0-2.686,0-4.029,0-.68,0-1.09-.33-1.135-.877-.053-.634.368-1.058,1.093-1.062,1.585-.009,3.171,0,4.757,0,1.116,0,2.233,0,3.349,0,.717,0,1.162.367,1.178.948s-.448.99-1.183.993C1383.538,421.772,1382.2,421.768,1380.852,421.768Z" transform="translate(-1339.542 -399.037)" fill="#fff"/>
    <path id="Trazado_55" data-name="Trazado 55" d="M1380.852,453.735c-1.359,0-2.718.005-4.077,0a.973.973,0,1,1-.045-1.936c.809-.021,1.618-.006,2.427-.006,1.909,0,3.818,0,5.728,0,.78,0,1.251.458,1.16,1.1a.963.963,0,0,1-1.067.843C1383.6,453.741,1382.228,453.735,1380.852,453.735Z" transform="translate(-1339.541 -427.11)" fill="#fff"/>
    <path id="Trazado_56" data-name="Trazado 56" d="M1380.839,387.831c1.408,0,2.815-.011,4.223.005a.962.962,0,0,1,.99.931.992.992,0,0,1-.89.985,2.085,2.085,0,0,1-.339.018h-7.961c-.065,0-.13,0-.194,0a.975.975,0,0,1-1-1.021.946.946,0,0,1,1.045-.915c1.375-.011,2.75,0,4.126,0Z" transform="translate(-1339.527 -370.936)" fill="#fff"/>
    <path id="Trazado_57" data-name="Trazado 57" d="M1409.264,485.751c-.745,0-1.489.008-2.234,0-.669-.009-1.073-.356-1.1-.916a.955.955,0,0,1,1.049-1.017c1.521-.022,3.043-.019,4.565,0a1,1,0,0,1,1.085,1c-.016.565-.451.932-1.135.939C1410.753,485.757,1410.009,485.751,1409.264,485.751Z" transform="translate(-1366.109 -455.226)" fill="#fff"/>
    <path id="Trazado_58" data-name="Trazado 58" d="M1375.618,484.871a.96.96,0,0,1,.968-.946.984.984,0,0,1,.956.967.97.97,0,0,1-1,.961A.939.939,0,0,1,1375.618,484.871Z" transform="translate(-1339.484 -455.336)" fill="#fff"/>
    <path id="Trazado_59" data-name="Trazado 59" d="M1164.062,390.739a3.421,3.421,0,1,1,3.255-3.631A3.434,3.434,0,0,1,1164.062,390.739Zm-.161-4.9a1.484,1.484,0,1,0,1.482,1.476A1.5,1.5,0,0,0,1163.9,385.843Z" transform="translate(-1150.516 -367.489)" fill="#fff"/>
  </g>
</svg>
