<svg xmlns="http://www.w3.org/2000/svg" xmlns:xlink="http://www.w3.org/1999/xlink" width="156.266" height="156.575" viewBox="0 0 156.266 156.575">
  <defs>
    <linearGradient id="linear-gradient" x1="0.5" x2="0.5" y2="1" gradientUnits="objectBoundingBox">
      <stop offset="0" stop-color="#2a005c"/>
      <stop offset="1" stop-color="#662d91"/>
    </linearGradient>
  </defs>
  <g id="Grupo_170" data-name="Grupo 170" transform="translate(-811.534 -74.252)">
    <g id="Grupo_3" data-name="Grupo 3" transform="translate(811.534 74.252)">
      <g id="Grupo_1" data-name="Grupo 1">
        <path id="Trazado_1" data-name="Trazado 1" d="M949.93,121.552q-18.588-18.588-45.236-20.863t-46.886,14.255q-13.583,11.209-26.333,2.853L821.2,107.527a23.123,23.123,0,0,1-3.982-10.244q-.932-8.155,4.234-13.323a25.648,25.648,0,0,1,19.107-7.744,26.364,26.364,0,0,1,19.1,7.951,25.642,25.642,0,0,1,6.611,11.153l1.446-.618A28.766,28.766,0,0,0,819.8,82.72a26.91,26.91,0,0,0-8.261,20.242,30.621,30.621,0,0,0,8.261,20.653c.42.459.859.864,1.289,1.289l.067.338,22.916,22.916a63.558,63.558,0,0,0-3.233,16.182l-6.922-6.922-8.882,8.882,17.406,17.406a59.391,59.391,0,0,0,16.19,29.141q18.387,18.387,44.822,17.969t45.236-19.208a62.875,62.875,0,0,0,19.1-45.34Q968.109,139.733,949.93,121.552ZM846.257,150.344l74.805,74.805a68.554,68.554,0,0,1-16.774,2.64l-61-61A59.963,59.963,0,0,1,846.257,150.344Zm-.45,36.729,38.435,38.435A55.074,55.074,0,0,1,860.285,211.2,56.463,56.463,0,0,1,845.807,187.072Zm101.024,22.678a61.557,61.557,0,0,1-13.27,10.132l-87.245-87.245q9.548-1.6,18.721-8.812,16.73-13.424,37.593-11.774t38.007,18.8q17.556,17.556,19.311,40.792T946.831,209.751Z" transform="translate(-811.534 -74.252)" fill="url(#linear-gradient)"/>
      </g>
      <g id="Grupo_2" data-name="Grupo 2" transform="translate(0.386 70.204)">
        <path id="Trazado_2" data-name="Trazado 2" d="M822.931,101.579q-4.543-4.543-9.285.193-4.14,4.145.4,8.689t8.689.4Q827.471,106.125,822.931,101.579Z" transform="translate(-811.672 -99.355)" fill="url(#linear-gradient)"/>
      </g>
    </g>
  </g>
</svg>
