<svg xmlns="http://www.w3.org/2000/svg" width="62.141" height="62.137" viewBox="0 0 62.141 62.137">
  <g id="Grupo_152" data-name="Grupo 152" transform="translate(0)">
    <g id="Grupo_151" data-name="Grupo 151" transform="translate(0 0)">
      <path id="Trazado_140" data-name="Trazado 140" d="M3240.236,436.935l2.447,2.487c.612-.645,1.222-1.317,1.862-1.96q3.693-3.709,7.4-7.4a3.565,3.565,0,0,1,.579-.52,1.317,1.317,0,0,1,1.83,1.806,3.6,3.6,0,0,1-.567.641q-4.359,4.368-8.722,8.732c-.18.181-.351.371-.49.518l3.035,3.008c.141-.132.35-.318.548-.516q4.307-4.309,8.612-8.621c.147-.147.287-.3.443-.44a1.333,1.333,0,0,1,1.893-.028,1.29,1.29,0,0,1,0,1.889c-.767.815-1.573,1.593-2.366,2.383-2.432,2.427-4.865,4.853-7.257,7.237l3.2,3.2a2.75,2.75,0,0,1,.387-.646q4.322-4.35,8.667-8.677a4.914,4.914,0,0,1,.633-.577,1.315,1.315,0,0,1,1.8,1.877,6.226,6.226,0,0,1-.588.625c-3.065,3.045-6.131,6.089-9.139,9.077l3.115,3.091c1.091-1.1,2.262-2.281,3.437-3.46q2.867-2.876,5.741-5.748a4.57,4.57,0,0,1,.575-.525,1.252,1.252,0,0,1,1.7.16,1.225,1.225,0,0,1,.142,1.64,4.872,4.872,0,0,1-.626.694c-3.061,3.05-6.124,6.1-9.117,9.076l3.073,3.065c.065-.061.269-.248.465-.443q4.334-4.338,8.667-8.677a6.138,6.138,0,0,1,.567-.536,1.318,1.318,0,0,1,1.715.063,1.29,1.29,0,0,1,.157,1.765,5.17,5.17,0,0,1-.531.571q-4.335,4.337-8.676,8.667a5.377,5.377,0,0,1-.641.485l3.235,3.245a4.565,4.565,0,0,1,.473-.673q4.3-4.318,8.612-8.621c.166-.165.324-.341.5-.491a1.324,1.324,0,0,1,1.894,1.846,6.744,6.744,0,0,1-.486.507q-4.306,4.31-8.613,8.62c-.2.2-.391.407-.556.58l3.046,3c.134-.125.343-.31.54-.508q4.308-4.309,8.613-8.62c.129-.129.254-.262.388-.385a1.344,1.344,0,0,1,1.949-.087,1.3,1.3,0,0,1-.053,1.945c-.958.993-1.946,1.958-2.922,2.933l-6.646,6.637,2.424,2.429,6.853-5.788c.855-.722,1.7-1.462,2.568-2.164a3.609,3.609,0,0,1,4.84,5.354q-5.866,5.9-11.768,11.765a3.559,3.559,0,0,1-5.341-.021q-21.333-21.308-42.652-42.63a3.594,3.594,0,0,1,0-5.4q5.845-5.865,11.71-11.709a3.606,3.606,0,0,1,5.335,4.852c-2.433,2.92-4.9,5.814-7.348,8.719C3240.6,436.484,3240.409,436.726,3240.236,436.935Z" transform="translate(-3229.882 -421.498)" fill="#fff"/>
    </g>
  </g>
</svg>
