<svg id="Grupo_154" data-name="Grupo 154" xmlns="http://www.w3.org/2000/svg" width="55.574" height="62.137" viewBox="0 0 55.574 62.137">
  <g id="Grupo_153" data-name="Grupo 153" transform="translate(0 0)">
    <path id="Trazado_141" data-name="Trazado 141" d="M3774.012,452.777c-.6,1.182-1.125,2.154-1.6,3.151a1.6,1.6,0,0,1-1.621,1c-1.795-.02-3.591,0-5.386-.011-.926-.007-1.485-.429-1.506-1.255-.078-3.08-.293-6.184.769-9.162,2.718-7.625,8.178-12.18,15.941-14.112a21.6,21.6,0,0,1,2.318-.364c1.145-.155,1.443.006,1.994,1.041q3.13,5.886,6.259,11.773c.126.237.268.467.451.782.183-.317.324-.544.45-.78q3.079-5.784,6.155-11.57c.707-1.329.815-1.426,2.318-1.214,8.072,1.14,13.931,5.336,17.383,12.756a16.273,16.273,0,0,1,1.464,7.144c-.015,1.138-.01,2.276-.032,3.413a1.368,1.368,0,0,1-1.543,1.547c-1.82.015-3.642,0-5.462.007a1.508,1.508,0,0,1-1.5-.93,19.925,19.925,0,0,0-1.71-2.988c-.166,2.332-.332,4.665-.507,7.12a17.482,17.482,0,0,0-16.043-4.466,17.125,17.125,0,0,0-10.47,6.873,17.752,17.752,0,0,0,4.3,24.909c-.267.022-.453.051-.639.052q-5.652,0-11.3,0c-1.377,0-1.833-.564-1.607-1.892a125.335,125.335,0,0,0,1.644-26.208c-.074-1.818-.23-3.632-.355-5.447C3774.143,453.627,3774.083,453.313,3774.012,452.777Z" transform="translate(-3763.83 -431.966)" fill="#fff"/>
    <path id="Trazado_142" data-name="Trazado 142" d="M3880.469,574.446a14.827,14.827,0,0,1-1.293,6.035.78.78,0,0,0,.231,1.035c1.963,1.935,3.935,3.863,5.845,5.849a4.851,4.851,0,0,1-2.062,8.106,4.692,4.692,0,0,1-4.875-1.279q-2.918-2.875-5.79-5.8a.818.818,0,0,0-1.1-.2,15.023,15.023,0,1,1,8.914-15.641C3880.417,573.181,3880.428,573.816,3880.469,574.446Zm-2.585.026a12.435,12.435,0,1,0-12.48,12.409A12.416,12.416,0,0,0,3877.884,574.472Z" transform="translate(-3832.852 -533.555)" fill="#fff"/>
  </g>
</svg>
