<svg xmlns="http://www.w3.org/2000/svg" width="175.337" height="40.421" viewBox="0 0 175.337 40.421">
  <g id="Grupo_20" data-name="Grupo 20" transform="translate(-137 -28.74)">
    <g id="Grupo_12" data-name="Grupo 12" transform="translate(137 28.74)">
      <g id="Grupo_1" data-name="Grupo 1">
        <path id="Trazado_1" data-name="Trazado 1" d="M646.907-134.08a18.261,18.261,0,0,0-9.612,1.645,18.239,18.239,0,0,0-6.958,5.693,17.928,17.928,0,0,0-1.123,1.7,18.473,18.473,0,0,0-1.516,3.34c-.057.157-.107.322-.157.486a17.922,17.922,0,0,0-.737,3.647c-.007-.157-.014-.322-.014-.486v11.872a9.324,9.324,0,0,1-2.975,5.214c-1.7,1.538-4.355,2.861-8.5,3.032-.3.014-.615.021-.93.021v-18.752a.3.3,0,0,1,.05-.079,5.849,5.849,0,0,1-.029-.622q-.022-.343-.021-.687A20.213,20.213,0,0,1,634.6-138.264,20.087,20.087,0,0,1,646.907-134.08Z" transform="translate(-614.389 138.264)" fill="#ec6608"/>
        <path id="Trazado_2" data-name="Trazado 2" d="M660.228-115.751a20.145,20.145,0,0,1-6.887,15.19,18.3,18.3,0,0,0-.887-13.295,18.213,18.213,0,0,0-9-8.9c-.129-.064-.257-.122-.386-.179l-.043-.021a3.534,3.534,0,0,0-.35-.136,7.853,7.853,0,0,0-2.66-.465,7.765,7.765,0,0,0-3.54.851,7.726,7.726,0,0,0-3.068,2.8,18.609,18.609,0,0,1,1.724-2.846,18.476,18.476,0,0,1,1.4-1.673,18.356,18.356,0,0,1,5.571-4.019,18.3,18.3,0,0,1,12.716-1.058A20.09,20.09,0,0,1,660.228-115.751Z" transform="translate(-619.807 135.962)" fill="#ec6608"/>
        <path id="Trazado_3" data-name="Trazado 3" d="M654.994-95.555c-.229.207-.465.4-.708.586l-.129.107a20.141,20.141,0,0,1-7.6,3.6,18.82,18.82,0,0,1-3.383.5c-.429.036-.865.05-1.3.05-.508,0-1.016-.021-1.516-.064a12.563,12.563,0,0,1-.365-2.11,14.327,14.327,0,0,1-.021-2.238,12.132,12.132,0,0,1,3.883-8.21l.315-.122.029-.007a6.147,6.147,0,0,0,.787-.3l.05-.021.136-.05.15-.079.379-.193.672-.429.6-.472.093-.072.329-.322.107-.1.265-.286.136-.172.193-.243.257-.358.036-.043.114-.193.25-.422.186-.386.136-.279.136-.358.043-.107.043-.15.136-.451.122-.565.021-.093.014-.129.071-.579.021-.5v-.107c0-.179-.007-.358-.021-.529l-.007-.079v-.079l-.014-.114a8.048,8.048,0,0,0-.3-1.509,18.247,18.247,0,0,1,4.363,5.886A18.28,18.28,0,0,1,654.994-95.555Z" transform="translate(-621.667 131.135)" fill="#ec6608"/>
      </g>
      <g id="Grupo_11" data-name="Grupo 11" transform="translate(53.827 13.468)">
        <g id="Grupo_2" data-name="Grupo 2" transform="translate(0 0.26)">
          <path id="Trazado_4" data-name="Trazado 4" d="M689.654-106.892v-11.646h6.13a7.681,7.681,0,0,1,5.257,1.756,5.968,5.968,0,0,1,2,4.728,5.966,5.966,0,0,1-2,4.725,7.681,7.681,0,0,1-5.257,1.757h-4.81a1.27,1.27,0,0,1-.93-.388A1.27,1.27,0,0,1,689.654-106.892Zm3.678-1.6h2.311a3.728,3.728,0,0,0,2.676-.955,3.449,3.449,0,0,0,1-2.617,3.406,3.406,0,0,0-1-2.605,3.75,3.75,0,0,0-2.676-.944h-4.927l2.617,1.417Z" transform="translate(-689.654 118.538)" fill="#ec6608"/>
        </g>
        <g id="Grupo_3" data-name="Grupo 3" transform="translate(15.027 0.26)">
          <path id="Trazado_5" data-name="Trazado 5" d="M710.666-105.571v-12.967h3.677v12.967Z" transform="translate(-710.666 118.538)" fill="#ec6608"/>
        </g>
        <g id="Grupo_4" data-name="Grupo 4" transform="translate(21.158)">
          <path id="Trazado_6" data-name="Trazado 6" d="M728.6-111.309a1.1,1.1,0,0,1,.094-.449,1.141,1.141,0,0,1,.236-.353,1.137,1.137,0,0,1,.353-.236,1.088,1.088,0,0,1,.448-.094h2.122v5.375a8.265,8.265,0,0,1-2.557,1.227,10.363,10.363,0,0,1-2.912.424,7.2,7.2,0,0,1-5.116-1.9,6.345,6.345,0,0,1-2.027-4.845,6.321,6.321,0,0,1,2.039-4.857,7.359,7.359,0,0,1,5.2-1.887,6.938,6.938,0,0,1,5.658,2.356l-1.485,1.369a1.133,1.133,0,0,1-.8.307,1.479,1.479,0,0,1-.849-.259,3.914,3.914,0,0,0-2.358-.732,4.071,4.071,0,0,0-1.932.448,3.1,3.1,0,0,0-1.309,1.3,4.041,4.041,0,0,0-.459,1.957,3.543,3.543,0,0,0,1.142,2.638,3.555,3.555,0,0,0,2.676,1.061,6.914,6.914,0,0,0,3.749-1.415l-1.909-.211Z" transform="translate(-719.239 118.901)" fill="#ec6608"/>
        </g>
        <g id="Grupo_5" data-name="Grupo 5" transform="translate(36.403 0.26)">
          <path id="Trazado_7" data-name="Trazado 7" d="M740.555-105.571v-12.967h3.677v12.967Z" transform="translate(-740.555 118.538)" fill="#ec6608"/>
        </g>
        <g id="Grupo_6" data-name="Grupo 6" transform="translate(42.282 0.518)">
          <path id="Trazado_8" data-name="Trazado 8" d="M767.779-118.176h2.357L766.246-106.2a1.36,1.36,0,0,1-.519.719,1.409,1.409,0,0,1-.848.272H762l-3.23-10.209.283,3.727-1.791,5.444a1.554,1.554,0,0,1-.555.757,1.466,1.466,0,0,1-.884.282h-2.852l-4.2-12.967h2.64a1.526,1.526,0,0,1,.908.295,1.538,1.538,0,0,1,.577.79l1.816,5.824-.519,4.337,3.726-11.245h2.121a1.623,1.623,0,0,1,1,.33,1.688,1.688,0,0,1,.6.848l1.792,5.731-.377,3.819,3.207-9.643a1.535,1.535,0,0,1,.577-.79A1.56,1.56,0,0,1,767.779-118.176Z" transform="translate(-748.776 118.176)" fill="#ec6608"/>
        </g>
        <g id="Grupo_7" data-name="Grupo 7" transform="translate(64.349)">
          <path id="Trazado_9" data-name="Trazado 9" d="M786.846-105.416a7.81,7.81,0,0,1-3.7-.871,6.49,6.49,0,0,1-2.582-2.417,6.557,6.557,0,0,1-.93-3.453,6.321,6.321,0,0,1,2.05-4.835,7.289,7.289,0,0,1,5.164-1.909,7.283,7.283,0,0,1,5.162,1.909,6.317,6.317,0,0,1,2.051,4.835,6.312,6.312,0,0,1-2.051,4.832A7.283,7.283,0,0,1,786.846-105.416Zm3.489-6.741a4.033,4.033,0,0,0-.46-1.957,3.179,3.179,0,0,0-1.262-1.3,3.587,3.587,0,0,0-1.78-.448,3.515,3.515,0,0,0-1.767.448,3.282,3.282,0,0,0-1.262,1.3,3.951,3.951,0,0,0-.472,1.957,3.665,3.665,0,0,0,1,2.674,3.361,3.361,0,0,0,2.512,1.026,3.321,3.321,0,0,0,2.5-1.026A3.689,3.689,0,0,0,790.334-112.157Z" transform="translate(-779.632 118.901)" fill="#ec6608"/>
        </g>
        <g id="Grupo_8" data-name="Grupo 8" transform="translate(80.631 0.26)">
          <path id="Trazado_10" data-name="Trazado 10" d="M810.415-105.571l-2.335-3.443h-2v2.311a1.069,1.069,0,0,1-.343.8,1.128,1.128,0,0,1-.812.33H802.4v-12.967h5.939a6.386,6.386,0,0,1,4.2,1.284,4.3,4.3,0,0,1,1.557,3.5,4.221,4.221,0,0,1-2.547,4.1l2.806,4.078Zm-.025-8.181a1.763,1.763,0,0,0-.576-1.415,2.567,2.567,0,0,0-1.709-.495h-4.291l2.262,1.036v2.76H808.1a2.6,2.6,0,0,0,1.709-.485A1.724,1.724,0,0,0,810.39-113.752Z" transform="translate(-802.399 118.538)" fill="#ec6608"/>
        </g>
        <g id="Grupo_9" data-name="Grupo 9" transform="translate(95.491 0.26)">
          <path id="Trazado_11" data-name="Trazado 11" d="M823.177-118.538H825.7a1.128,1.128,0,0,1,.812.33,1.1,1.1,0,0,1,.343.825v7.591l-2.075,1.32h7.308a.9.9,0,0,1,.66.282.906.906,0,0,1,.284.66v1.957h-9.854Z" transform="translate(-823.177 118.538)" fill="#ec6608"/>
        </g>
        <g id="Grupo_10" data-name="Grupo 10" transform="translate(108.119 0.26)">
          <path id="Trazado_12" data-name="Trazado 12" d="M840.835-106.892v-11.646h6.13a7.674,7.674,0,0,1,5.256,1.756,5.964,5.964,0,0,1,2.005,4.728,5.962,5.962,0,0,1-2.005,4.725,7.675,7.675,0,0,1-5.256,1.757h-4.809a1.271,1.271,0,0,1-.932-.388A1.274,1.274,0,0,1,840.835-106.892Zm3.677-1.6h2.311a3.726,3.726,0,0,0,2.676-.955,3.444,3.444,0,0,0,1-2.617,3.4,3.4,0,0,0-1-2.605,3.748,3.748,0,0,0-2.676-.944h-4.928l2.617,1.417Z" transform="translate(-840.835 118.538)" fill="#ec6608"/>
        </g>
      </g>
    </g>
    <g id="Grupo_13" data-name="Grupo 13" transform="translate(137 28.74)">
      <path id="Trazado_1-2" data-name="Trazado 1" d="M646.907-134.08a18.261,18.261,0,0,0-9.612,1.645,18.239,18.239,0,0,0-6.958,5.693,17.928,17.928,0,0,0-1.123,1.7,18.473,18.473,0,0,0-1.516,3.34c-.057.157-.107.322-.157.486a17.922,17.922,0,0,0-.737,3.647c-.007-.157-.014-.322-.014-.486v11.872a9.324,9.324,0,0,1-2.975,5.214c-1.7,1.538-4.355,2.861-8.5,3.032-.3.014-.615.021-.93.021v-18.752a.3.3,0,0,1,.05-.079,5.849,5.849,0,0,1-.029-.622q-.022-.343-.021-.687A20.213,20.213,0,0,1,634.6-138.264,20.087,20.087,0,0,1,646.907-134.08Z" transform="translate(-614.389 138.264)" fill="#ec6608"/>
      <path id="Trazado_2-2" data-name="Trazado 2" d="M660.228-115.751a20.145,20.145,0,0,1-6.887,15.19,18.3,18.3,0,0,0-.887-13.295,18.213,18.213,0,0,0-9-8.9c-.129-.064-.257-.122-.386-.179l-.043-.021a3.534,3.534,0,0,0-.35-.136,7.853,7.853,0,0,0-2.66-.465,7.765,7.765,0,0,0-3.54.851,7.726,7.726,0,0,0-3.068,2.8,18.609,18.609,0,0,1,1.724-2.846,18.476,18.476,0,0,1,1.4-1.673,18.356,18.356,0,0,1,5.571-4.019,18.3,18.3,0,0,1,12.716-1.058A20.09,20.09,0,0,1,660.228-115.751Z" transform="translate(-619.807 135.962)" fill="#ec6608"/>
      <path id="Trazado_3-2" data-name="Trazado 3" d="M654.994-95.555c-.229.207-.465.4-.708.586l-.129.107a20.141,20.141,0,0,1-7.6,3.6,18.82,18.82,0,0,1-3.383.5c-.429.036-.865.05-1.3.05-.508,0-1.016-.021-1.516-.064a12.563,12.563,0,0,1-.365-2.11,14.327,14.327,0,0,1-.021-2.238,12.132,12.132,0,0,1,3.883-8.21l.315-.122.029-.007a6.147,6.147,0,0,0,.787-.3l.05-.021.136-.05.15-.079.379-.193.672-.429.6-.472.093-.072.329-.322.107-.1.265-.286.136-.172.193-.243.257-.358.036-.043.114-.193.25-.422.186-.386.136-.279.136-.358.043-.107.043-.15.136-.451.122-.565.021-.093.014-.129.071-.579.021-.5v-.107c0-.179-.007-.358-.021-.529l-.007-.079v-.079l-.014-.114a8.048,8.048,0,0,0-.3-1.509,18.247,18.247,0,0,1,4.363,5.886A18.28,18.28,0,0,1,654.994-95.555Z" transform="translate(-621.667 131.135)" fill="#ec6608"/>
    </g>
  </g>
</svg>
