<svg xmlns="http://www.w3.org/2000/svg" width="56.948" height="56.537" viewBox="0 0 56.948 56.537">
  <g id="Grupo_150" data-name="Grupo 150" transform="translate(0)">
    <g id="Grupo_149" data-name="Grupo 149" transform="translate(0 0)">
      <path id="Trazado_138" data-name="Trazado 138" d="M2745.862,407.233c.506,1.81,1.13,3.563,1.477,5.37a28.818,28.818,0,0,1-3.3,19.611,1.183,1.183,0,0,1-1.481.725c-.682-.228-.845-.767-.839-1.433a78.8,78.8,0,0,0-2.914-21.849c-.079-.284-.174-.564-.231-.748-1.9.9-3.714,1.889-5.618,2.643a42.911,42.911,0,0,1-16.483,2.635,67.705,67.705,0,0,1-14.513-1.778.852.852,0,0,0-1.04.391,16.853,16.853,0,0,0-2.541,6.563,49.121,49.121,0,0,0-.657,12.059c.043.843-.243,1.383-.868,1.534-.684.165-1.216-.178-1.5-1a46.758,46.758,0,0,1-3.079-16.24,18.169,18.169,0,0,1,2.563-9.9,14.526,14.526,0,0,0,1.905-4.279,13.743,13.743,0,0,1,4.75-6.8,30.038,30.038,0,0,1,15.641-6.78,22.221,22.221,0,0,1,10.423.84,15.283,15.283,0,0,1,5.075,2.941,23.66,23.66,0,0,0,6.85,4.427,7.859,7.859,0,0,0,3.668.586,4.022,4.022,0,0,0,2.428-1.075,1.124,1.124,0,0,1,1.766.084c1.805,2.53,2.6,5.608,1.053,8.487a9.334,9.334,0,0,1-1.155,1.644A19.03,19.03,0,0,1,2745.862,407.233Z" transform="translate(-2692.264 -387.704)" fill="#fff"/>
      <path id="Trazado_139" data-name="Trazado 139" d="M2733.308,615.7a12.972,12.972,0,0,1-3.554,4.085c-4.084,2.97-8.451,3.251-13.008,1.271a25.129,25.129,0,0,1-8.643-6.519,1.184,1.184,0,0,1-.207-1.526,1.113,1.113,0,0,1,1.32-.525c4.884,1.332,9.347.223,13.513-2.409,1.189-.751,2.268-1.68,3.387-2.541a5.24,5.24,0,0,1,6.274-.206c.315.23.594.508.927.8a5.131,5.131,0,0,1,3.024-1.675,5.46,5.46,0,0,1,4.554,1.409,20.577,20.577,0,0,0,8.379,4.611,14.985,14.985,0,0,0,8.023.039,1.162,1.162,0,0,1,1.4.477,1.082,1.082,0,0,1-.092,1.415c-3.282,3.649-7,6.651-11.955,7.647a12.344,12.344,0,0,1-12.945-5.72C2733.6,616.153,2733.484,615.979,2733.308,615.7Z" transform="translate(-2704.837 -565.784)" fill="#fff"/>
    </g>
  </g>
</svg>
