<svg id="Grupo_109" data-name="Grupo 109" xmlns="http://www.w3.org/2000/svg" width="40.421" height="40.421" viewBox="0 0 40.421 40.421">
  <path id="Trazado_1" data-name="Trazado 1" d="M646.907-134.08a18.261,18.261,0,0,0-9.612,1.645,18.239,18.239,0,0,0-6.958,5.693,17.928,17.928,0,0,0-1.123,1.7,18.473,18.473,0,0,0-1.516,3.34c-.057.157-.107.322-.157.486a17.922,17.922,0,0,0-.737,3.647c-.007-.157-.014-.322-.014-.486v11.872a9.324,9.324,0,0,1-2.975,5.214c-1.7,1.538-4.355,2.861-8.5,3.032-.3.014-.615.021-.93.021v-18.752a.3.3,0,0,1,.05-.079,5.849,5.849,0,0,1-.029-.622q-.022-.343-.021-.687A20.213,20.213,0,0,1,634.6-138.264,20.087,20.087,0,0,1,646.907-134.08Z" transform="translate(-614.389 138.264)" fill="#ff5b00"/>
  <path id="Trazado_2" data-name="Trazado 2" d="M660.228-115.751a20.145,20.145,0,0,1-6.887,15.19,18.3,18.3,0,0,0-.887-13.295,18.213,18.213,0,0,0-9-8.9c-.129-.064-.257-.122-.386-.179l-.043-.021a3.534,3.534,0,0,0-.35-.136,7.853,7.853,0,0,0-2.66-.465,7.765,7.765,0,0,0-3.54.851,7.726,7.726,0,0,0-3.068,2.8,18.609,18.609,0,0,1,1.724-2.846,18.476,18.476,0,0,1,1.4-1.673,18.356,18.356,0,0,1,5.571-4.019,18.3,18.3,0,0,1,12.716-1.058A20.09,20.09,0,0,1,660.228-115.751Z" transform="translate(-619.807 135.962)" fill="#ff5b00"/>
  <path id="Trazado_3" data-name="Trazado 3" d="M654.994-95.555c-.229.207-.465.4-.708.586l-.129.107a20.141,20.141,0,0,1-7.6,3.6,18.82,18.82,0,0,1-3.383.5c-.429.036-.865.05-1.3.05-.508,0-1.016-.021-1.516-.064a12.563,12.563,0,0,1-.365-2.11,14.327,14.327,0,0,1-.021-2.238,12.132,12.132,0,0,1,3.883-8.21l.315-.122.029-.007a6.147,6.147,0,0,0,.787-.3l.05-.021.136-.05.15-.079.379-.193.672-.429.6-.472.093-.072.329-.322.107-.1.265-.286.136-.172.193-.243.257-.358.036-.043.114-.193.25-.422.186-.386.136-.279.136-.358.043-.107.043-.15.136-.451.122-.565.021-.093.014-.129.071-.579.021-.5v-.107c0-.179-.007-.358-.021-.529l-.007-.079v-.079l-.014-.114a8.048,8.048,0,0,0-.3-1.509,18.247,18.247,0,0,1,4.363,5.886A18.28,18.28,0,0,1,654.994-95.555Z" transform="translate(-621.667 131.135)" fill="#ff5b00"/>
</svg>
