<svg id="Grupo_143" data-name="Grupo 143" xmlns="http://www.w3.org/2000/svg" width="58.247" height="58.247" viewBox="0 0 58.247 58.247">
  <path id="Trazado_133" data-name="Trazado 133" d="M486.332,68.758H472.7a7.052,7.052,0,0,0-7.045,7.043V89.435a7.052,7.052,0,0,0,7.045,7.043h13.632a7.051,7.051,0,0,0,7.045-7.043V75.8A7.051,7.051,0,0,0,486.332,68.758Zm-6.675,22.269a8.409,8.409,0,1,1,8.41-8.41A8.419,8.419,0,0,1,479.657,91.027Zm8.9-15.381a2,2,0,1,1,2-2A2,2,0,0,1,488.557,75.646Z" transform="translate(-450.394 -53.495)" fill="#262626"/>
  <path id="Trazado_134" data-name="Trazado 134" d="M501,61.095H473.228A15.28,15.28,0,0,0,457.993,76.33V104.1a15.28,15.28,0,0,0,15.235,15.237H501A15.281,15.281,0,0,0,516.24,104.1V76.33A15.281,15.281,0,0,0,501,61.095Zm3.187,35.941a10.268,10.268,0,0,1-10.258,10.256H480.3a10.268,10.268,0,0,1-10.258-10.256V83.4A10.268,10.268,0,0,1,480.3,73.146h13.632A10.268,10.268,0,0,1,504.189,83.4Z" transform="translate(-457.993 -61.095)" fill="#262626"/>
  <path id="Trazado_135" data-name="Trazado 135" d="M475.368,73.012a5.387,5.387,0,1,0,5.386,5.386A5.392,5.392,0,0,0,475.368,73.012Z" transform="translate(-446.104 -49.275)" fill="#262626"/>
</svg>
