<svg id="language_black_24dp" xmlns="http://www.w3.org/2000/svg" width="59.049" height="59.049" viewBox="0 0 59.049 59.049">
  <path id="Trazado_109" data-name="Trazado 109" d="M0,0H59.049V59.049H0Z" fill="none"/>
  <path id="Trazado_110" data-name="Trazado 110" d="M26.579,2A24.6,24.6,0,1,0,51.208,26.6,24.592,24.592,0,0,0,26.579,2ZM43.63,16.762H36.372A38.5,38.5,0,0,0,32.976,8,19.756,19.756,0,0,1,43.63,16.762ZM26.6,7.019a34.659,34.659,0,0,1,4.7,9.743H21.9A34.659,34.659,0,0,1,26.6,7.019ZM7.56,31.525a20.278,20.278,0,0,1-.64-4.921,20.278,20.278,0,0,1,.64-4.921h8.316a40.634,40.634,0,0,0-.344,4.921,40.634,40.634,0,0,0,.344,4.921Zm2.018,4.921h7.258a38.5,38.5,0,0,0,3.4,8.759A19.651,19.651,0,0,1,9.578,36.445Zm7.258-19.683H9.578A19.651,19.651,0,0,1,20.231,8a38.5,38.5,0,0,0-3.4,8.759ZM26.6,46.189a34.659,34.659,0,0,1-4.7-9.743h9.4A34.659,34.659,0,0,1,26.6,46.189Zm5.757-14.664H20.847a36.2,36.2,0,0,1-.394-4.921,35.885,35.885,0,0,1,.394-4.921H32.361a35.885,35.885,0,0,1,.394,4.921A36.2,36.2,0,0,1,32.361,31.525Zm.615,13.68a38.5,38.5,0,0,0,3.4-8.759H43.63A19.756,19.756,0,0,1,32.976,45.2Zm4.355-13.68a40.634,40.634,0,0,0,.344-4.921,40.634,40.634,0,0,0-.344-4.921h8.316a20.278,20.278,0,0,1,.64,4.921,20.278,20.278,0,0,1-.64,4.921Z" transform="translate(2.921 2.921)" fill="#fff"/>
</svg>
