<svg xmlns="http://www.w3.org/2000/svg" width="58.247" height="58.247" viewBox="0 0 58.247 58.247">
  <path id="Trazado_137" data-name="Trazado 137" d="M595.709,76.33a15.28,15.28,0,0,0-15.235-15.235H552.7A15.282,15.282,0,0,0,537.462,76.33V104.1A15.282,15.282,0,0,0,552.7,119.342h27.774a15.28,15.28,0,0,0,15.235-15.235Zm-35.7,26.583h-5.641V84.794h5.641Zm-2.82-20.592a3.266,3.266,0,1,1,3.267-3.269A3.268,3.268,0,0,1,557.193,82.322Zm23.918,20.592h-5.629V94.106c0-2.1-.042-4.806-2.928-4.806-2.93,0-3.378,2.289-3.378,4.651v8.963h-5.629V84.794h5.4v2.48h.074a5.925,5.925,0,0,1,5.334-2.928c5.7,0,6.754,3.751,6.754,8.631Z" transform="translate(-537.462 -61.095)" fill="#262626"/>
</svg>
