<svg xmlns="http://www.w3.org/2000/svg" width="138.631" height="37.233" viewBox="0 0 138.631 37.233">
  <g id="Grupo_23" data-name="Grupo 23" transform="translate(0 0)">
    <g id="Grupo_2" data-name="Grupo 2" transform="translate(2.601 2.429)">
      <g id="Grupo_1" data-name="Grupo 1" transform="translate(0 0)">
        <path id="Trazado_1" data-name="Trazado 1" d="M-7157.784,5002.116a16.025,16.025,0,0,1-6.277-1.268,16.068,16.068,0,0,1-5.124-3.454,16.074,16.074,0,0,1-3.455-5.125,16.027,16.027,0,0,1-1.268-6.276,16.031,16.031,0,0,1,1.268-6.276,16.065,16.065,0,0,1,3.455-5.125,16.063,16.063,0,0,1,5.124-3.455,16.025,16.025,0,0,1,6.277-1.268,16.024,16.024,0,0,1,6.276,1.268,16.063,16.063,0,0,1,5.124,3.455,16.065,16.065,0,0,1,3.455,5.125,16.013,16.013,0,0,1,1.268,6.276,16.01,16.01,0,0,1-1.268,6.276,16.074,16.074,0,0,1-3.455,5.125,16.068,16.068,0,0,1-5.124,3.454A16.024,16.024,0,0,1-7157.784,5002.116Zm0-28.629a12.519,12.519,0,0,0-12.506,12.505,12.52,12.52,0,0,0,12.506,12.506,12.52,12.52,0,0,0,12.5-12.506A12.519,12.519,0,0,0-7157.784,4973.486Z" transform="translate(7173.908 -4969.868)" fill="#262626"/>
      </g>
    </g>
    <g id="Grupo_4" data-name="Grupo 4">
      <g id="Grupo_3" data-name="Grupo 3" transform="translate(0 0)">
        <path id="Trazado_2" data-name="Trazado 2" d="M-7234.982,4920.46h-3.618v-11.009h10.751v3.619h-7.133Z" transform="translate(7238.601 -4909.452)" fill="#262626"/>
      </g>
    </g>
    <g id="Grupo_6" data-name="Grupo 6" transform="translate(26.269 0.129)">
      <g id="Grupo_5" data-name="Grupo 5" transform="translate(0 0)">
        <path id="Trazado_3" data-name="Trazado 3" d="M-6574.156,4923.41h-3.618v-7.133h-7.391v-3.618h11.009Z" transform="translate(6585.165 -4912.66)" fill="#262626"/>
      </g>
    </g>
    <g id="Grupo_8" data-name="Grupo 8" transform="translate(26.527 26.225)">
      <g id="Grupo_7" data-name="Grupo 7" transform="translate(0 0)">
        <path id="Trazado_4" data-name="Trazado 4" d="M-6568,5572.826h-10.75v-3.618h7.132v-7.39H-6568Z" transform="translate(6578.749 -5561.818)" fill="#262626"/>
      </g>
    </g>
    <g id="Grupo_10" data-name="Grupo 10" transform="translate(0 26.354)">
      <g id="Grupo_9" data-name="Grupo 9" transform="translate(0 0)">
        <path id="Trazado_5" data-name="Trazado 5" d="M-7227.592,5575.776H-7238.6v-10.75h3.618v7.132h7.391Z" transform="translate(7238.601 -5565.026)" fill="#262626"/>
      </g>
    </g>
    <g id="Grupo_12" data-name="Grupo 12" transform="translate(26.829 26.859)">
      <g id="Grupo_11" data-name="Grupo 11" transform="translate(0 0)">
        <rect id="Rectángulo_3" data-name="Rectángulo 3" width="3.618" height="9.597" transform="translate(0 2.547) rotate(-44.743)" fill="#262626"/>
      </g>
    </g>
    <g id="Grupo_14" data-name="Grupo 14" transform="translate(0.693 0.722)">
      <g id="Grupo_13" data-name="Grupo 13" transform="translate(0 0)">
        <rect id="Rectángulo_4" data-name="Rectángulo 4" width="3.618" height="9.597" transform="translate(0 2.547) rotate(-44.743)" fill="#262626"/>
      </g>
    </g>
    <g id="Grupo_16" data-name="Grupo 16" transform="translate(17.451 1.13)">
      <g id="Grupo_15" data-name="Grupo 15" transform="translate(0 0)">
        <rect id="Rectángulo_5" data-name="Rectángulo 5" width="22.774" height="3.618" transform="translate(0 16.031) rotate(-44.743)" fill="#262626"/>
      </g>
    </g>
    <g id="Grupo_18" data-name="Grupo 18" transform="translate(0.869 27.073)">
      <g id="Grupo_17" data-name="Grupo 17" transform="translate(0 0)">
        <rect id="Rectángulo_6" data-name="Rectángulo 6" width="9.597" height="3.618" transform="translate(0 6.755) rotate(-44.743)" fill="#262626"/>
      </g>
    </g>
    <g id="Grupo_20" data-name="Grupo 20" transform="translate(12.492 12.137)">
      <g id="Grupo_19" data-name="Grupo 19" transform="translate(0 0)">
        <circle id="Elipse_1" data-name="Elipse 1" cx="6.233" cy="6.233" r="6.233" fill="#262626"/>
      </g>
    </g>
    <g id="Grupo_22" data-name="Grupo 22" transform="translate(49.591 8.99)">
      <g id="Grupo_21" data-name="Grupo 21" transform="translate(0 0)">
        <path id="Trazado_6" data-name="Trazado 6" d="M-5984.6,5146.811a10.5,10.5,0,0,1-9.96,7.207,10.479,10.479,0,0,1-10.469-10.468,10.48,10.48,0,0,1,10.469-10.469,10.441,10.441,0,0,1,9.929,7.148h-4.994a5.441,5.441,0,0,0-4.935-2.961,6.116,6.116,0,0,0-5.923,6.281,6.1,6.1,0,0,0,5.923,6.281,5.558,5.558,0,0,0,4.964-3.021Z" transform="translate(6005.025 -5133.081)" fill="#262626"/>
        <path id="Trazado_7" data-name="Trazado 7" d="M-5436.683,5324.387h-4.486V5322.8c-.9,1.346-2.842,1.884-4.517,1.884a6.736,6.736,0,0,1-6.55-6.879,6.763,6.763,0,0,1,6.55-6.908,5.557,5.557,0,0,1,4.517,1.914v-1.585h4.486Zm-7.627-9.87a3.232,3.232,0,0,0-3.141,3.29,3.232,3.232,0,0,0,3.141,3.29,3.231,3.231,0,0,0,3.141-3.29A3.231,3.231,0,0,0-5444.31,5314.517Z" transform="translate(5474.458 -5303.75)" fill="#262626"/>
        <path id="Trazado_8" data-name="Trazado 8" d="M-4976.081,5331.864V5311.2h4.486v1.616a5.52,5.52,0,0,1,4.517-1.914,6.763,6.763,0,0,1,6.55,6.908,6.736,6.736,0,0,1-6.55,6.879c-1.705,0-3.619-.538-4.517-1.884v9.063Zm7.627-10.768a3.231,3.231,0,0,0,3.14-3.29,3.231,3.231,0,0,0-3.14-3.29,3.231,3.231,0,0,0-3.141,3.29A3.231,3.231,0,0,0-4968.454,5321.1Z" transform="translate(5017.446 -5303.75)" fill="#262626"/>
        <path id="Trazado_9" data-name="Trazado 9" d="M-4545.569,5331.528h-13.878l6.939-9.781h-6.341v-3.41h13.221l-6.342,9.631h6.4Z" transform="translate(4617.561 -5310.89)" fill="#262626"/>
        <path id="Trazado_10" data-name="Trazado 10" d="M-4161.483,5324.387h-4.486V5322.8c-.9,1.346-2.841,1.884-4.517,1.884a6.736,6.736,0,0,1-6.55-6.879,6.762,6.762,0,0,1,6.55-6.908,5.558,5.558,0,0,1,4.517,1.914v-1.585h4.486Zm-7.626-9.87a3.231,3.231,0,0,0-3.141,3.29,3.231,3.231,0,0,0,3.141,3.29,3.231,3.231,0,0,0,3.14-3.29A3.231,3.231,0,0,0-4169.109,5314.517Z" transform="translate(4250.523 -5303.75)" fill="#262626"/>
      </g>
    </g>
  </g>
</svg>
