<svg xmlns="http://www.w3.org/2000/svg" width="420.842" height="156.575" viewBox="0 0 420.842 156.575">
  <g id="Grupo_169" data-name="Grupo 169" transform="translate(-811.534 -74.252)">
    <g id="Grupo_3" data-name="Grupo 3" transform="translate(811.534 74.252)">
      <g id="Grupo_1" data-name="Grupo 1">
        <path id="Trazado_1" data-name="Trazado 1" d="M949.93,121.552q-18.588-18.588-45.236-20.863t-46.886,14.255q-13.583,11.209-26.333,2.853L821.2,107.527a23.123,23.123,0,0,1-3.982-10.244q-.932-8.155,4.234-13.323a25.648,25.648,0,0,1,19.107-7.744,26.364,26.364,0,0,1,19.1,7.951,25.642,25.642,0,0,1,6.611,11.153l1.446-.618A28.766,28.766,0,0,0,819.8,82.72a26.91,26.91,0,0,0-8.261,20.242,30.621,30.621,0,0,0,8.261,20.653c.42.459.859.864,1.289,1.289l.067.338,22.916,22.916a63.558,63.558,0,0,0-3.233,16.182l-6.922-6.922-8.882,8.882,17.406,17.406a59.391,59.391,0,0,0,16.19,29.141q18.387,18.387,44.822,17.969t45.236-19.208a62.875,62.875,0,0,0,19.1-45.34Q968.109,139.733,949.93,121.552ZM846.257,150.344l74.805,74.805a68.554,68.554,0,0,1-16.774,2.64l-61-61A59.963,59.963,0,0,1,846.257,150.344Zm-.45,36.729,38.435,38.435A55.074,55.074,0,0,1,860.285,211.2,56.463,56.463,0,0,1,845.807,187.072Zm101.024,22.678a61.557,61.557,0,0,1-13.27,10.132l-87.245-87.245q9.548-1.6,18.721-8.812,16.73-13.424,37.593-11.774t38.007,18.8q17.556,17.556,19.311,40.792T946.831,209.751Z" transform="translate(-811.534 -74.252)" fill="#fff"/>
      </g>
      <g id="Grupo_2" data-name="Grupo 2" transform="translate(0.386 70.204)">
        <path id="Trazado_2" data-name="Trazado 2" d="M822.931,101.579q-4.543-4.543-9.285.193-4.14,4.145.4,8.689t8.689.4Q827.471,106.125,822.931,101.579Z" transform="translate(-811.672 -99.355)" fill="#fff"/>
      </g>
    </g>
    <g id="Grupo_4" data-name="Grupo 4" transform="translate(1016.882 152.148)">
      <path id="Trazado_3" data-name="Trazado 3" d="M887.175,107.975a1.958,1.958,0,0,1-2.215-2.215v-1.4a1.931,1.931,0,0,1,2.215-2.151h1.334a1.889,1.889,0,0,1,2.123,2.151v1.4q0,2.215-2.123,2.215Zm.641,29.488a1.657,1.657,0,0,1-1.874-1.879V114.167a1.866,1.866,0,0,1,3.731,0v21.417A1.651,1.651,0,0,1,887.816,137.463Z" transform="translate(-884.96 -101.909)" fill="#fff"/>
      <path id="Trazado_4" data-name="Trazado 4" d="M897.726,137.659q-3.78,0-5.607-1.84t-1.826-5.621V103.959a1.865,1.865,0,0,1,3.731,0V130.2a4.31,4.31,0,0,0,.75,2.97,4.189,4.189,0,0,0,2.953.761,1.661,1.661,0,0,1,1.9,1.851C899.666,137.035,899.029,137.659,897.726,137.659Z" transform="translate(-875.38 -102.105)" fill="#fff"/>
      <path id="Trazado_5" data-name="Trazado 5" d="M910.711,136.544q-4.392,0-6.737-1.843a8.1,8.1,0,0,1-2.8-5.722,1.726,1.726,0,0,1,.42-1.432,1.9,1.9,0,0,1,1.406-.5,1.819,1.819,0,0,1,1.359.459,2.4,2.4,0,0,1,.57,1.37,4.1,4.1,0,0,0,1.611,3.082,7.874,7.874,0,0,0,4.175.853h7.311q3.4,0,4.656-1.258t1.256-4.578c0-2.251-.431-3.806-1.281-4.656s-2.4-1.284-4.631-1.284h-6.5q-4.694,0-6.938-2.26t-2.249-6.927q0-4.669,2.223-6.9t6.916-2.235h6.393a10.083,10.083,0,0,1,6.332,1.74,7.68,7.68,0,0,1,2.677,5.367,1.666,1.666,0,0,1-.392,1.435,1.941,1.941,0,0,1-1.435.492,1.783,1.783,0,0,1-1.345-.47,2.237,2.237,0,0,1-.556-1.356,3.673,3.673,0,0,0-1.513-2.716,7.248,7.248,0,0,0-3.767-.761h-6.393q-3.15,0-4.279,1.155t-1.13,4.251q0,3.1,1.155,4.276t4.3,1.18h6.5q4.921,0,7.282,2.358t2.36,7.313q0,4.921-2.36,7.243t-7.282,2.324Z" transform="translate(-855.857 -101.013)" fill="#fff"/>
      <path id="Trazado_6" data-name="Trazado 6" d="M921.9,130.974q-4.161,0-6.167-2T913.73,122.8q0-4.161,1.991-6.167t6.18-2H932.89q-.1-2.895-1.421-3.985t-4.492-1.091h-2.945a13.57,13.57,0,0,0-4.1.456,2.755,2.755,0,0,0-1.787,1.6,3.307,3.307,0,0,1-.778,1.281,1.9,1.9,0,0,1-1.281.366,1.97,1.97,0,0,1-1.457-.517,1.387,1.387,0,0,1-.319-1.384,5.978,5.978,0,0,1,3-4.2,13.925,13.925,0,0,1,6.723-1.331h2.945q4.946,0,7.308,2.36t2.363,7.308v13.6a1.865,1.865,0,1,1-3.731,0v-1.6q-2.613,3.478-8.172,3.476Zm0-3.731h2.844a16.348,16.348,0,0,0,3.781-.406,6.658,6.658,0,0,0,2.892-1.421,4.749,4.749,0,0,0,1.5-2.844v-4.209H921.9q-2.613,0-3.526.926t-.915,3.513q0,2.618.915,3.529T921.9,127.243Z" transform="translate(-833.27 -95.42)" fill="#fff"/>
      <path id="Trazado_7" data-name="Trazado 7" d="M932.836,137.659q-3.784,0-5.607-1.84T925.4,130.2V103.959a1.865,1.865,0,0,1,3.731,0V130.2a4.309,4.309,0,0,0,.75,2.97,4.2,4.2,0,0,0,2.956.761,1.659,1.659,0,0,1,1.9,1.851C934.774,137.035,934.137,137.659,932.836,137.659Z" transform="translate(-812.303 -102.105)" fill="#fff"/>
      <path id="Trazado_8" data-name="Trazado 8" d="M940.274,130.974q-4.95,0-7.319-2.358t-2.375-7.285v-5.837q0-5,2.375-7.347t7.319-2.321h4.161q4.95,0,7.308,2.36t2.36,7.308v5.786q0,4.946-2.36,7.322t-7.308,2.372Zm-5.963-9.643q0,3.377,1.267,4.642t4.7,1.27h4.161q3.427,0,4.685-1.27t1.256-4.693v-5.786q0-3.423-1.256-4.684t-4.685-1.253h-4.161a9.651,9.651,0,0,0-3.577.534,3.285,3.285,0,0,0-1.843,1.826,9.46,9.46,0,0,0-.543,3.577Z" transform="translate(-802.994 -95.42)" fill="#fff"/>
      <path id="Trazado_9" data-name="Trazado 9" d="M944.143,130.974a1.657,1.657,0,0,1-1.874-1.879V107.677a1.866,1.866,0,0,1,3.731,0v1.373q2.584-3.226,8.194-3.225h1.421q4.95,0,7.308,2.36t2.363,7.308v13.6a1.866,1.866,0,1,1-3.731,0v-13.6q0-3.423-1.284-4.684t-4.656-1.253h-1.421a15.607,15.607,0,0,0-5.61.875A3.652,3.652,0,0,0,946,113.184v15.91A1.651,1.651,0,0,1,944.143,130.974Z" transform="translate(-781.995 -95.42)" fill="#fff"/>
      <path id="Trazado_10" data-name="Trazado 10" d="M957.334,119.911v1.421q0,3.377,1.267,4.642t4.693,1.27h4.164a10.471,10.471,0,0,0,4.1-.6,2.965,2.965,0,0,0,1.689-2.095,2.733,2.733,0,0,1,.646-1.292,1.782,1.782,0,0,1,1.334-.459,1.9,1.9,0,0,1,1.421.495,1.588,1.588,0,0,1,.33,1.435,6.445,6.445,0,0,1-2.858,4.71,12.216,12.216,0,0,1-6.659,1.533h-4.164q-4.946,0-7.319-2.358t-2.372-7.285v-5.837q0-5.026,2.372-7.372t7.319-2.3h4.164q4.946,0,7.308,2.346t2.36,7.322v2.537a1.648,1.648,0,0,1-1.851,1.879Zm5.96-10.353q-3.423-.055-4.693,1.219t-1.267,4.718v.685H973.4v-.685q0-3.423-1.259-4.684t-4.682-1.253Z" transform="translate(-761.631 -95.42)" fill="#fff"/>
    </g>
  </g>
</svg>
