<svg xmlns="http://www.w3.org/2000/svg" width="183" height="184" viewBox="0 0 183 184">
  <g id="savings_black_24dp" transform="translate(0 0)">
    <rect id="Rectángulo_59" data-name="Rectángulo 59" width="183" height="184" transform="translate(0 0)" fill="none"/>
    <g id="Grupo_190" data-name="Grupo 190" transform="translate(15.822 14.809)">
      <path id="Trazado_189" data-name="Trazado 189" d="M100.194,63.29a7.554,7.554,0,1,1,7.553,7.661A7.63,7.63,0,0,1,100.194,63.29ZM47.32,55.629H85.087V40.306H47.32ZM153.067,44.137v53.4l-21.3,7.2-12.69,42.827H77.534V132.242H62.427v15.323H20.883S2,82.75,2,59.46,20.581,17.323,43.543,17.323H81.31A37.556,37.556,0,0,1,111.524,2a11.4,11.4,0,0,1,11.33,11.492,10.862,10.862,0,0,1-.906,4.444,37.446,37.446,0,0,0-2.417,8.81l17.146,17.391ZM137.961,59.46h-7.553L103.97,32.645a56,56,0,0,1,1.964-14.633A22.9,22.9,0,0,0,90.148,32.645h-46.6A26.657,26.657,0,0,0,17.107,59.46c0,14.4,9.215,50.948,15.182,72.782H47.32V116.919H92.64v15.323h15.182L119.53,92.786l18.43-6.282Z" transform="translate(-2 -2)" fill="#545454"/>
    </g>
  </g>
</svg>
