<svg xmlns="http://www.w3.org/2000/svg" width="84.556" height="84.555" viewBox="0 0 84.556 84.555">
  <g id="Grupo_104" data-name="Grupo 104" transform="translate(-166.057 -223.969)">
    <path id="Trazado_93" data-name="Trazado 93" d="M192.8,242.336a1.36,1.36,0,0,1-1.361-1.36V225.329a1.36,1.36,0,0,1,2.721,0v15.646A1.36,1.36,0,0,1,192.8,242.336Z" transform="translate(15.534)" fill="#f60"/>
    <path id="Trazado_94" data-name="Trazado 94" d="M185.379,252.074H167.417a1.36,1.36,0,0,1,0-2.721h17.962a1.36,1.36,0,0,1,0,2.721Z" transform="translate(0 15.534)" fill="#f60"/>
    <path id="Trazado_95" data-name="Trazado 95" d="M199.6,270.766A14.554,14.554,0,1,1,209.9,266.5,14.459,14.459,0,0,1,199.6,270.766Zm0-26.388a11.832,11.832,0,1,0,8.368,3.466A11.754,11.754,0,0,0,199.6,244.378Z" transform="translate(11.626 10.824)" fill="#f60"/>
    <path id="Trazado_96" data-name="Trazado 96" d="M232.247,295.115a6.225,6.225,0,0,1-4.43-1.836l-16.539-16.539a20.551,20.551,0,1,1,8.858-8.858l16.54,16.54a6.264,6.264,0,0,1-4.43,10.692ZM211.519,273.7a1.36,1.36,0,0,1,.962.4l17.261,17.261a3.627,3.627,0,0,0,5.01,0,3.541,3.541,0,0,0,0-5.01l-17.261-17.261a1.359,1.359,0,0,1-.214-1.646,17.833,17.833,0,1,0-6.443,6.441A1.363,1.363,0,0,1,211.519,273.7Z" transform="translate(9.35 8.551)" fill="#f60"/>
    <path id="Trazado_97" data-name="Trazado 97" d="M203.945,268.844a1.36,1.36,0,0,1-.962-2.323l6.935-6.935a1.361,1.361,0,1,1,1.925,1.925l-6.935,6.935A1.356,1.356,0,0,1,203.945,268.844Z" transform="translate(22.352 21.553)" fill="#f60"/>
    <path id="Trazado_98" data-name="Trazado 98" d="M192.8,283.4a1.361,1.361,0,0,1-1.361-1.361V266.391a1.36,1.36,0,0,1,2.721,0v15.646A1.361,1.361,0,0,1,192.8,283.4Z" transform="translate(15.534 25.127)" fill="#f60"/>
    <path id="Trazado_99" data-name="Trazado 99" d="M225.334,252.563H206.5a1.36,1.36,0,0,1,0-2.721h18.831a1.36,1.36,0,0,1,0,2.721Z" transform="translate(23.919 15.833)" fill="#f60"/>
    <path id="Trazado_100" data-name="Trazado 100" d="M202.395,308.521a42.257,42.257,0,0,1-12.7-1.942,1.335,1.335,0,0,1-.546-.33c-8.258-8.142-13.387-23.472-13.387-40.005s5.129-31.862,13.387-40a1.334,1.334,0,0,1,.546-.33,42.641,42.641,0,0,1,25.395,0,1.334,1.334,0,0,1,.546.33c6.227,6.138,10.806,16.555,12.568,28.578a1.36,1.36,0,1,1-2.692.395c-1.655-11.3-5.859-21.042-11.554-26.805a39.925,39.925,0,0,0-23.131,0c-7.621,7.71-12.344,22.164-12.344,37.836s4.723,30.127,12.344,37.837a39.926,39.926,0,0,0,23.131,0,32.308,32.308,0,0,0,4.847-6.457,1.361,1.361,0,1,1,2.35,1.372,34.711,34.711,0,0,1-5.518,7.254,1.351,1.351,0,0,1-.548.33A42.257,42.257,0,0,1,202.395,308.521Z" transform="translate(5.94 0.003)" fill="#f60"/>
    <path id="Trazado_101" data-name="Trazado 101" d="M208.335,286.939c-16.534,0-31.863-5.131-40.005-13.387A1.365,1.365,0,0,1,168,273a42.439,42.439,0,0,1,0-25.395,1.37,1.37,0,0,1,.329-.546c8.142-8.256,23.472-13.387,40.005-13.387s31.863,5.131,40.005,13.387a1.393,1.393,0,0,1,.33.546,42.473,42.473,0,0,1,0,25.395,1.387,1.387,0,0,1-.33.548,33.561,33.561,0,0,1-6.109,4.817,1.36,1.36,0,0,1-1.443-2.307,31.126,31.126,0,0,0,5.384-4.189,39.741,39.741,0,0,0,0-23.13c-7.71-7.621-22.163-12.346-37.837-12.346s-30.127,4.725-37.837,12.346a39.741,39.741,0,0,0,0,23.13c7.71,7.621,22.164,12.346,37.837,12.346a75.323,75.323,0,0,0,11.9-.932,1.361,1.361,0,0,1,.43,2.689A78.454,78.454,0,0,1,208.335,286.939Z" transform="translate(0 5.94)" fill="#f60"/>
    <path id="Trazado_102" data-name="Trazado 102" d="M202.471,262.426a1.361,1.361,0,0,1-.962-2.323l3.883-3.883a1.36,1.36,0,1,1,1.923,1.925l-3.882,3.883A1.356,1.356,0,0,1,202.471,262.426Z" transform="translate(21.45 19.492)" fill="#f60"/>
    <path id="Trazado_103" data-name="Trazado 103" d="M208.335,308.524A42.295,42.295,0,1,1,242.528,291.1a1.359,1.359,0,0,1-2.062.161l-13.624-13.624a1.359,1.359,0,0,1-.214-1.646,17.833,17.833,0,1,0-6.443,6.441,1.359,1.359,0,0,1,1.647.214l13.877,13.877a1.359,1.359,0,0,1-.082,2A42.3,42.3,0,0,1,208.335,308.524Zm0-81.834a39.556,39.556,0,1,0,24.385,70.694l-12.091-12.091a20.551,20.551,0,1,1,8.858-8.858l11.756,11.756a39.551,39.551,0,0,0-32.908-61.5Z" transform="translate(0)" fill="#f60"/>
  </g>
</svg>
