<svg xmlns="http://www.w3.org/2000/svg" width="183.324" height="183.323" viewBox="0 0 183.324 183.323">
  <g id="Grupo_102" data-name="Grupo 102" transform="translate(-238.782 -91.745)">
    <path id="Trazado_76" data-name="Trazado 76" d="M319.39,246.917A74.566,74.566,0,1,1,372.139,225.1,74.355,74.355,0,0,1,319.39,246.917Zm0-142.983a68.417,68.417,0,1,0,48.4,20.014A68.259,68.259,0,0,0,319.39,103.934Z" transform="translate(15.969 15.968)" fill="#f60"/>
    <path id="Trazado_77" data-name="Trazado 77" d="M306.588,216.425a56.895,56.895,0,1,1,40.25-16.648A56.723,56.723,0,0,1,306.588,216.425Zm0-107.64a50.745,50.745,0,1,0,35.9,14.845A50.618,50.618,0,0,0,306.588,108.785Z" transform="translate(28.77 28.789)" fill="#f60"/>
    <path id="Trazado_78" data-name="Trazado 78" d="M292.089,181.973a36.94,36.94,0,1,1,26.116-10.819A36.693,36.693,0,0,1,292.089,181.973Zm0-67.707a30.758,30.758,0,1,0,21.77,9A30.7,30.7,0,0,0,292.089,114.266Z" transform="translate(43.269 43.282)" fill="#f60"/>
    <path id="Trazado_79" data-name="Trazado 79" d="M279.707,152.531a19.868,19.868,0,1,1,14.051-5.818A19.732,19.732,0,0,1,279.707,152.531Zm0-33.58a13.712,13.712,0,1,0,9.7,4.011A13.686,13.686,0,0,0,279.707,118.951Z" transform="translate(55.651 55.656)" fill="#f60"/>
    <path id="Trazado_80" data-name="Trazado 80" d="M308.651,164.688a3.05,3.05,0,0,1-2.171-.9L249.789,107.1a3.076,3.076,0,0,1,4.35-4.35l56.687,56.687a3.075,3.075,0,0,1-2.175,5.249Z" transform="translate(26.707 26.706)" fill="#f60"/>
    <path id="Trazado_81" data-name="Trazado 81" d="M274.48,133.881a3.072,3.072,0,0,1-2.175-.9l-7.974-7.971a3.075,3.075,0,0,1,4.266-4.43l-.423-1.6a3.075,3.075,0,0,1,5.945-1.574l3.33,12.615a3.071,3.071,0,0,1-2.969,3.858Z" transform="translate(65.148 61.778)" fill="#f60"/>
    <path id="Trazado_82" data-name="Trazado 82" d="M277.845,130.515a3.065,3.065,0,0,1-.783-.1l-12.612-3.33a3.074,3.074,0,0,1,1.567-5.945l1.606.423a3.074,3.074,0,0,1,4.426-4.266l7.971,7.971a3.074,3.074,0,0,1-2.175,5.249Z" transform="translate(61.779 65.144)" fill="#f60"/>
    <path id="Trazado_83" data-name="Trazado 83" d="M261.36,135.126a3.075,3.075,0,0,1-2.171-.9l-19.5-19.5a3.073,3.073,0,0,1,1.985-5.242l13.989-.86.856-13.989a3.076,3.076,0,0,1,5.246-1.985l19.5,19.5a3.1,3.1,0,0,1,.9,2.251l-.419,17.307a3.08,3.08,0,0,1-3,3l-17.307.419Zm-12.5-19.927,13.748,13.745,13.063-.313.313-13.067-13.745-13.745-.6,9.894a3.078,3.078,0,0,1-2.882,2.881Z" transform="translate(0 0)" fill="#f60"/>
    <path id="Trazado_84" data-name="Trazado 84" d="M328.285,268a86.738,86.738,0,0,1-63.9-145.4,3.074,3.074,0,0,1,2.189-.991l2.018-.051.047-2.015a3.078,3.078,0,0,1,.994-2.189A86.739,86.739,0,1,1,328.285,268ZM268.046,127.723a80.6,80.6,0,1,0,6.714-6.714l-.087,3.625a3.078,3.078,0,0,1-3,3Z" transform="translate(7.073 7.071)" fill="#f60"/>
  </g>
</svg>
