<svg xmlns="http://www.w3.org/2000/svg" width="84.556" height="83.13" viewBox="0 0 84.556 83.13">
  <g id="Grupo_103" data-name="Grupo 103" transform="translate(-309.49 -24.416)">
    <path id="Trazado_85" data-name="Trazado 85" d="M326.473,46.882a3.027,3.027,0,0,1-1.78-.589l-3.363-2.445a.314.314,0,0,0-.37,0L317.6,46.293a3.029,3.029,0,0,1-4.661-3.385l1.285-3.956a.311.311,0,0,0-.113-.349l-3.365-2.445a3.029,3.029,0,0,1,1.78-5.479h4.157a.315.315,0,0,0,.3-.216l1.285-3.955a3.027,3.027,0,0,1,5.758,0l1.287,3.955a.311.311,0,0,0,.3.216h4.159a3.03,3.03,0,0,1,1.78,5.479L328.181,38.6a.311.311,0,0,0-.113.349l1.285,3.955a3.047,3.047,0,0,1-2.88,3.976Zm-5.328-5.811a3.034,3.034,0,0,1,1.78.581l3.363,2.445a.313.313,0,0,0,.482-.351l-1.283-3.955a3.017,3.017,0,0,1,1.1-3.385l3.366-2.445a.315.315,0,0,0-.185-.568h-4.159a3.017,3.017,0,0,1-2.879-2.091l-1.287-3.955a.313.313,0,0,0-.6,0L319.563,31.3a3.021,3.021,0,0,1-2.88,2.091h-4.157a.314.314,0,0,0-.185.568l3.365,2.445a3.017,3.017,0,0,1,1.1,3.385l-1.285,3.955A.314.314,0,0,0,316,44.1l3.365-2.445A3.025,3.025,0,0,1,321.145,41.071Z" transform="translate(0)" fill="#f60"/>
    <path id="Trazado_86" data-name="Trazado 86" d="M345.515,46.882a3.019,3.019,0,0,1-1.78-.589l-3.365-2.445a.314.314,0,0,0-.37,0l-3.363,2.445a3.028,3.028,0,0,1-4.659-3.387l1.285-3.955a.312.312,0,0,0-.114-.349l-3.363-2.445a3.028,3.028,0,0,1,1.779-5.479h4.159a.313.313,0,0,0,.3-.216l1.285-3.955a3.028,3.028,0,0,1,5.759,0l1.285,3.955a.313.313,0,0,0,.3.216h4.159a3.029,3.029,0,0,1,1.779,5.479L347.223,38.6a.313.313,0,0,0-.114.349l1.285,3.955a2.982,2.982,0,0,1-1.1,3.387A3.027,3.027,0,0,1,345.515,46.882Zm-13.95-13.489a.314.314,0,0,0-.185.568l3.365,2.445a3.02,3.02,0,0,1,1.1,3.385l-1.285,3.955a.314.314,0,0,0,.482.351l3.365-2.445a3.019,3.019,0,0,1,3.559,0L345.33,44.1a.314.314,0,0,0,.482-.351l-1.285-3.955a3.017,3.017,0,0,1,1.1-3.385l3.363-2.445a.314.314,0,0,0-.183-.568h-4.159a3.021,3.021,0,0,1-2.88-2.091l-1.285-3.955a.314.314,0,0,0-.6,0L338.6,31.3a3.02,3.02,0,0,1-2.879,2.091Z" transform="translate(11.582)" fill="#f60"/>
    <path id="Trazado_87" data-name="Trazado 87" d="M364.556,46.882a3.02,3.02,0,0,1-1.78-.589l-3.365-2.445a.311.311,0,0,0-.368,0l-3.365,2.445a3.029,3.029,0,0,1-4.661-3.385l1.287-3.956a.312.312,0,0,0-.114-.349l-3.365-2.445a3.029,3.029,0,0,1,1.78-5.479h4.157a.313.313,0,0,0,.3-.216l1.285-3.955a3.028,3.028,0,0,1,5.759,0l1.285,3.955a.314.314,0,0,0,.3.216h4.159a3.028,3.028,0,0,1,1.779,5.479L366.264,38.6a.315.315,0,0,0-.114.349l1.285,3.955a2.982,2.982,0,0,1-1.1,3.385A3.018,3.018,0,0,1,364.556,46.882Zm-5.328-5.811a3.029,3.029,0,0,1,1.779.581l3.365,2.445a.285.285,0,0,0,.368,0,.289.289,0,0,0,.114-.351l-1.285-3.955a3.02,3.02,0,0,1,1.1-3.385l3.365-2.445a.314.314,0,0,0-.185-.568h-4.159A3.02,3.02,0,0,1,360.81,31.3l-1.285-3.955a.314.314,0,0,0-.6,0L357.644,31.3a3.018,3.018,0,0,1-2.88,2.091h-4.157a.313.313,0,0,0-.183.568l3.363,2.445a3.02,3.02,0,0,1,1.1,3.385L353.6,43.746a.285.285,0,0,0,.114.351.28.28,0,0,0,.367,0l3.366-2.445A3.03,3.03,0,0,1,359.228,41.071Z" transform="translate(23.164)" fill="#f60"/>
    <path id="Trazado_88" data-name="Trazado 88" d="M353.633,68.928H348.44a1.357,1.357,0,0,1,0-2.715h5.193a2.4,2.4,0,0,0,0-4.791H348.44a1.357,1.357,0,0,1,0-2.715h5.193a5.11,5.11,0,0,1,0,10.221Z" transform="translate(22.867 20.858)" fill="#f60"/>
    <path id="Trazado_89" data-name="Trazado 89" d="M353.633,73.593H348.44a1.357,1.357,0,0,1,0-2.715h5.193a2.395,2.395,0,0,0,0-4.789H348.44a1.357,1.357,0,0,1,0-2.715h5.193a5.109,5.109,0,1,1,0,10.219Z" transform="translate(22.867 23.697)" fill="#f60"/>
    <path id="Trazado_90" data-name="Trazado 90" d="M365.79,94.3H328.455a1.358,1.358,0,0,1-1.357-1.357V62.918a1.356,1.356,0,0,1,1.073-1.327l3.3-.711a10.774,10.774,0,0,0,7.9-6.866l3.176-8.673a5.6,5.6,0,0,1,5.24-3.662,5.581,5.581,0,0,1,5.274,7.4l-3.329,9.624a2.149,2.149,0,0,0,2.031,2.853H365.79a5.109,5.109,0,1,1,0,10.219H360.6a1.357,1.357,0,0,1,0-2.715h5.193a2.395,2.395,0,0,0,0-4.789H351.766a4.811,4.811,0,0,1-3.963-2.043,4.877,4.877,0,0,1-.635-4.413L350.5,48.2a2.866,2.866,0,0,0-2.708-3.8,2.876,2.876,0,0,0-2.691,1.882l-3.176,8.673a13.475,13.475,0,0,1-9.876,8.587l-2.234.479V91.58H365.79a2.4,2.4,0,0,0,0-4.791H360.6a1.357,1.357,0,0,1,0-2.715h5.193a5.11,5.11,0,0,1,0,10.221Z" transform="translate(10.71 10.501)" fill="#f60"/>
    <path id="Trazado_91" data-name="Trazado 91" d="M335.162,90.8H317.429a1.358,1.358,0,0,1-1.357-1.357V53.3a1.358,1.358,0,0,1,1.357-1.357h17.733A1.357,1.357,0,0,1,336.52,53.3V89.444A1.357,1.357,0,0,1,335.162,90.8Zm-16.375-2.715H333.8V54.659H318.787Z" transform="translate(4.004 16.744)" fill="#f60"/>
    <path id="Trazado_92" data-name="Trazado 92" d="M324.02,63.82a4.208,4.208,0,1,1,4.209-4.207A4.211,4.211,0,0,1,324.02,63.82Zm0-5.7a1.493,1.493,0,1,0,1.492,1.494A1.495,1.495,0,0,0,324.02,58.119Z" transform="translate(6.279 18.849)" fill="#f60"/>
  </g>
</svg>
