<svg id="Grupo_48" data-name="Grupo 48" xmlns="http://www.w3.org/2000/svg" width="49.766" height="49.874" viewBox="0 0 49.766 49.874">
  <path id="Trazado_60" data-name="Trazado 60" d="M1721.748,135.891h23c1.412,0,1.849.442,1.849,1.868q0,23.084,0,46.168c0,1.378-.453,1.837-1.816,1.837H1698.65c-1.367,0-1.816-.454-1.816-1.836q0-23.117,0-46.233c0-1.338.46-1.8,1.783-1.8Zm-22.111,13.865v33.206h44.169V144.237c-.163-.013-.288-.032-.414-.032q-9.653,0-19.307.014a1.235,1.235,0,0,0-.766.355c-1.435,1.409-2.867,2.821-4.252,4.278a2.737,2.737,0,0,1-2.166.919c-5.485-.031-10.971-.015-16.456-.015Zm-.018-2.833c.178.018.284.038.391.038q8.293,0,16.586-.013a1.237,1.237,0,0,0,.769-.355c1.465-1.439,2.923-2.887,4.345-4.368a2.4,2.4,0,0,1,1.883-.794c6.479.023,12.958.013,19.437.013h.817v-2.733h-44.227Z" transform="translate(-1696.834 -135.891)" fill="#fff"/>
  <path id="Trazado_61" data-name="Trazado 61" d="M1766.541,235.783a7.611,7.611,0,0,1,1.158.116,2.918,2.918,0,0,0,2.418-.6,1.268,1.268,0,0,0,.377-.5c.313-.64.607-1.289.9-1.939a1.48,1.48,0,0,1,1.476-.949q2.591.017,5.182,0a1.463,1.463,0,0,1,1.476.943,11.714,11.714,0,0,1,.592,1.295,2.724,2.724,0,0,0,3.1,1.762c2.611-.327,2.383-.308,3.567,1.765.664,1.163,1.329,2.326,2.015,3.477a1.49,1.49,0,0,1-.067,1.808c-.3.4-.569.815-.851,1.224a2.35,2.35,0,0,0,0,3.167c.32.462.642.922.957,1.387a1.358,1.358,0,0,1,.068,1.529q-1.368,2.391-2.752,4.772a1.426,1.426,0,0,1-1.469.741c-.666-.06-1.332-.162-2-.172a3.837,3.837,0,0,0-1.092.226c-.806.235-1.137.893-1.452,1.6-1.058,2.384-.866,2.172-3.4,2.172-1.209,0-2.419-.025-3.627.008a1.55,1.55,0,0,1-1.666-1.053c-.158-.4-.414-.77-.528-1.181a2.667,2.667,0,0,0-1.707-1.71,1.5,1.5,0,0,0-.682-.088c-.689.046-1.376.118-2.063.19A1.487,1.487,0,0,1,1764.9,255q-1.34-2.332-2.686-4.661a1.457,1.457,0,0,1,.062-1.647,14.354,14.354,0,0,1,.853-1.3,2.52,2.52,0,0,0-.053-3.255,11.351,11.351,0,0,1-.93-1.326,1.355,1.355,0,0,1-.083-1.529q1.382-2.42,2.787-4.827A1.5,1.5,0,0,1,1766.541,235.783Zm.721,2.743a3.183,3.183,0,0,0-.656.576c-.47.75-.872,1.544-1.346,2.291a.721.721,0,0,0,.059,1.02,4.561,4.561,0,0,1,1.262,3.974,3.241,3.241,0,0,1-.007.388,5.244,5.244,0,0,1-.38,1.2c-.347.618-1.085,1.181-1.1,1.777-.012.633.7,1.25.971,1.926a1.756,1.756,0,0,0,2.343,1.208,2.757,2.757,0,0,1,1.68.175c1.536.725,2.933,1.64,3.385,3.468.035.143.339.292.53.309.493.044,1-.057,1.486.028a2.082,2.082,0,0,0,2.7-1.676,1.5,1.5,0,0,1,.545-.855c1.37-.81,2.588-2.128,4.448-1.5a1.157,1.157,0,0,0,1.226-.265c.52-.82,1.005-1.665,1.452-2.528a.8.8,0,0,0-.049-.72,5.052,5.052,0,0,1-1.378-4.153c.008-.063-.025-.134-.009-.193a7.211,7.211,0,0,1,.426-1.438c.307-.589,1.009-1.1,1.037-1.67s-.65-1.135-.872-1.755a1.972,1.972,0,0,0-2.688-1.376,2.3,2.3,0,0,1-1.426-.181c-1.537-.738-2.909-1.669-3.37-3.487-.043-.171-.4-.341-.626-.371-.446-.058-.917.05-1.356-.029a2.144,2.144,0,0,0-2.8,1.741,1.707,1.707,0,0,1-.666.917C1770.653,238.24,1769.285,239.484,1767.262,238.526Z" transform="translate(-1750.61 -215.291)" fill="#fff"/>
  <path id="Trazado_62" data-name="Trazado 62" d="M1730.231,168.019a1.366,1.366,0,0,1,1.4,1.374,1.4,1.4,0,0,1-1.353,1.373,1.371,1.371,0,0,1-1.388-1.389A1.333,1.333,0,0,1,1730.231,168.019Z" transform="translate(-1723.343 -162.458)" fill="#fff"/>
  <path id="Trazado_63" data-name="Trazado 63" d="M1794.084,168.019a1.332,1.332,0,0,1,1.345,1.352,1.369,1.369,0,0,1-1.382,1.4,1.4,1.4,0,0,1-1.359-1.367A1.366,1.366,0,0,1,1794.084,168.019Z" transform="translate(-1776.096 -162.457)" fill="#fff"/>
  <path id="Trazado_64" data-name="Trazado 64" d="M1762.115,168.021a1.371,1.371,0,0,1,1.367,1.348,1.382,1.382,0,0,1-2.764.037A1.378,1.378,0,0,1,1762.115,168.021Z" transform="translate(-1749.659 -162.459)" fill="#fff"/>
  <path id="Trazado_65" data-name="Trazado 65" d="M1814.135,291.025a5.533,5.533,0,1,1,5.534-5.512A5.534,5.534,0,0,1,1814.135,291.025Zm-2.748-5.51a2.748,2.748,0,1,0,2.732-2.788A2.752,2.752,0,0,0,1811.387,285.515Z" transform="translate(-1789.252 -255.021)" fill="#fff"/>
</svg>
