<svg id="timeline_black_24dp" xmlns="http://www.w3.org/2000/svg" width="58" height="58" viewBox="0 0 58 58">
  <g id="Grupo_129" data-name="Grupo 129">
    <rect id="Rectángulo_246" data-name="Rectángulo 246" width="58" height="58" fill="none"/>
  </g>
  <g id="Grupo_131" data-name="Grupo 131" transform="translate(2.411 14.464)">
    <g id="Grupo_130" data-name="Grupo 130">
      <path id="Trazado_114" data-name="Trazado 114" d="M54.036,10.821a4.836,4.836,0,0,1-4.821,4.821,4.1,4.1,0,0,1-1.229-.169L39.4,24.032a4.258,4.258,0,0,1,.169,1.254,4.821,4.821,0,0,1-9.643,0,4.259,4.259,0,0,1,.169-1.254L23.95,17.885a4.741,4.741,0,0,1-2.507,0L10.474,28.878a4.1,4.1,0,0,1,.169,1.229,4.821,4.821,0,1,1-4.821-4.821,4.1,4.1,0,0,1,1.229.169L18.044,14.486a4.259,4.259,0,0,1-.169-1.254,4.821,4.821,0,0,1,9.643,0,4.259,4.259,0,0,1-.169,1.254L33.5,20.633a4.741,4.741,0,0,1,2.507,0l8.558-8.582a4.1,4.1,0,0,1-.169-1.229,4.821,4.821,0,1,1,9.643,0Z" transform="translate(-1 -6)" fill="#f60"/>
    </g>
  </g>
</svg>
