<svg id="Grupo_142" data-name="Grupo 142" xmlns="http://www.w3.org/2000/svg" width="58.245" height="58.247" viewBox="0 0 58.245 58.247">
  <path id="Trazado_131" data-name="Trazado 131" d="M519.244,77.689l-7.674-4.177c-.315-.179-1.392.05-1.392.41v8.145c0,.357,1.068.586,1.382.414l8.019-3.968C519.9,78.338,519.566,77.872,519.244,77.689Z" transform="translate(-485.381 -48.841)" fill="#262626"/>
  <path id="Trazado_132" data-name="Trazado 132" d="M540.738,61.095H512.963A15.28,15.28,0,0,0,497.728,76.33v27.776a15.28,15.28,0,0,0,15.235,15.235h27.774A15.281,15.281,0,0,0,555.973,104.1V76.33A15.28,15.28,0,0,0,540.738,61.095Zm1.705,33.21a6.994,6.994,0,0,1-6.993,6.993H517.567a6.993,6.993,0,0,1-6.993-6.993V85.983a6.993,6.993,0,0,1,6.993-6.993h17.883a6.994,6.994,0,0,1,6.993,6.993Z" transform="translate(-497.728 -61.095)" fill="#262626"/>
</svg>
