<svg id="Capa_1" data-name="Capa 1" xmlns="http://www.w3.org/2000/svg" viewBox="0 0 40.42 40.42"><defs><style>.cls-1{fill:#f60;}</style></defs><g id="Grupo_20" data-name="Grupo 20"><g id="Grupo_12" data-name="Grupo 12"><g id="Grupo_1" data-name="Grupo 1"><path id="Trazado_1" data-name="Trazado 1" class="cls-1" d="M33.67,4.18A18.39,18.39,0,0,0,17.1,11.52,17.18,17.18,0,0,0,16,13.22a18,18,0,0,0-1.52,3.34c-.06.16-.11.32-.16.49a17.4,17.4,0,0,0-.73,3.64c0-.15,0-.32,0-.48V32.08a9.29,9.29,0,0,1-3,5.21c-1.7,1.54-4.36,2.87-8.5,3l-.93,0V21.6a.22.22,0,0,1,.05-.08q0-.32,0-.63c0-.22,0-.45,0-.68a20.21,20.21,0,0,1,32.52-16Z" transform="translate(-1.15 0)"/><path id="Trazado_2" data-name="Trazado 2" class="cls-1" d="M41.57,20.21A20.13,20.13,0,0,1,34.69,35.4,18.34,18.34,0,0,0,24.8,13.21L24.41,13l0,0a2.13,2.13,0,0,0-.35-.14,7.76,7.76,0,0,0-2.66-.47,7.86,7.86,0,0,0-6.61,3.66,18.34,18.34,0,0,1,1.73-2.85,17.19,17.19,0,0,1,1.4-1.67,18,18,0,0,1,5.57-4A18.23,18.23,0,0,1,36.16,6.46,20.07,20.07,0,0,1,41.57,20.21Z" transform="translate(-1.15 0)"/><path id="Trazado_3" data-name="Trazado 3" class="cls-1" d="M34.48,35.58c-.23.21-.47.4-.71.59l-.13.1a20.11,20.11,0,0,1-7.6,3.6,18.38,18.38,0,0,1-3.38.5c-.43,0-.87.05-1.3.05s-1,0-1.52-.06a12.58,12.58,0,0,1-.36-2.11,14,14,0,0,1,0-2.24,12.1,12.1,0,0,1,3.88-8.21l.31-.12h0a5.36,5.36,0,0,0,.79-.3l.05,0,.14-.05.15-.08.38-.19.67-.43.6-.47.09-.08.33-.32.11-.1.26-.28.14-.18.19-.24.26-.36,0,0,.12-.19.25-.42.18-.39.14-.28.14-.36,0-.1,0-.15.14-.45.12-.57,0-.09V21.4l.08-.58,0-.5v-.11c0-.18,0-.36,0-.53v-.16l0-.11a7.77,7.77,0,0,0-.3-1.51,18.38,18.38,0,0,1,5.66,17.68Z" transform="translate(-1.15 0)"/></g></g><g id="Grupo_13" data-name="Grupo 13"><path id="Trazado_1-2" data-name="Trazado 1-2" class="cls-1" d="M33.67,4.18A18.39,18.39,0,0,0,17.1,11.52,17.18,17.18,0,0,0,16,13.22a18,18,0,0,0-1.52,3.34c-.06.16-.11.32-.16.49a17.4,17.4,0,0,0-.73,3.64c0-.15,0-.32,0-.48V32.08a9.29,9.29,0,0,1-3,5.21c-1.7,1.54-4.36,2.87-8.5,3l-.93,0V21.6a.22.22,0,0,1,.05-.08q0-.32,0-.63c0-.22,0-.45,0-.68a20.21,20.21,0,0,1,32.52-16Z" transform="translate(-1.15 0)"/><path id="Trazado_2-2" data-name="Trazado 2-2" class="cls-1" d="M41.57,20.21A20.13,20.13,0,0,1,34.69,35.4,18.34,18.34,0,0,0,24.8,13.21L24.41,13l0,0a2.13,2.13,0,0,0-.35-.14,7.76,7.76,0,0,0-2.66-.47,7.86,7.86,0,0,0-6.61,3.66,18.34,18.34,0,0,1,1.73-2.85,17.19,17.19,0,0,1,1.4-1.67,18,18,0,0,1,5.57-4A18.23,18.23,0,0,1,36.16,6.46,20.07,20.07,0,0,1,41.57,20.21Z" transform="translate(-1.15 0)"/><path id="Trazado_3-2" data-name="Trazado 3-2" class="cls-1" d="M34.48,35.58c-.23.21-.47.4-.71.59l-.13.1a20.11,20.11,0,0,1-7.6,3.6,18.38,18.38,0,0,1-3.38.5c-.43,0-.87.05-1.3.05s-1,0-1.52-.06a12.58,12.58,0,0,1-.36-2.11,14,14,0,0,1,0-2.24,12.1,12.1,0,0,1,3.88-8.21l.31-.12h0a5.36,5.36,0,0,0,.79-.3l.05,0,.14-.05.15-.08.38-.19.67-.43.6-.47.09-.08.33-.32.11-.1.26-.28.14-.18.19-.24.26-.36,0,0,.12-.19.25-.42.18-.39.14-.28.14-.36,0-.1,0-.15.14-.45.12-.57,0-.09V21.4l.08-.58,0-.5v-.11c0-.18,0-.36,0-.53v-.16l0-.11a7.77,7.77,0,0,0-.3-1.51,18.38,18.38,0,0,1,5.66,17.68Z" transform="translate(-1.15 0)"/></g></g></svg>