<svg id="Capa_5" data-name="Capa 5" xmlns="http://www.w3.org/2000/svg" viewBox="0 0 206.97 202.44"><defs><style>.cls-1,.cls-2{fill:#fff;}.cls-2{opacity:0.7;}</style></defs><title>icon</title><path class="cls-1" d="M79.11,171.77V215.7L193.7,154.05s9.43-5.8,0-11l-53.29-27.8,43.39-4.19,44.72,25.58s22.64,11.8.88,24.13L74,246.32s-18.85,11.44-18.85-9.59v-66Z" transform="translate(-31.88 -46.99)"/><path class="cls-1" d="M123.53,76.8,55.18,89.2V60.49s1.45-22.48,21-9.43Z" transform="translate(-31.88 -46.99)"/><polygon class="cls-1" points="142.24 99.97 66.04 104.68 0.09 77.84 8.49 67.56 26.98 67.56 142.24 99.97"/><path class="cls-2" d="M79.11,186.64s-15.27-2.79-23.93,11.18v-24H79.11Z" transform="translate(-31.88 -46.99)"/><path class="cls-1" d="M55.18,167.2s2.9-10.16,15.95-8l85.76.69,17.23-13H66.78s-11.6-.33-11.16,9Z" transform="translate(-31.88 -46.99)"/><path class="cls-1" d="M55.18,185.8s3.62-8.73,24.66-8.72,47.86-.44,47.86-.44,9.43-1,16-6.79L158.16,159H62.43s-7.25-1.45-7.25,7.25Z" transform="translate(-31.88 -46.99)"/><path class="cls-1" d="M218.69,80.68l6.06-17.1-179.32,33s-13.78,2.73-13.32,18.69Z" transform="translate(-31.88 -46.99)"/><path class="cls-1" d="M32.16,125s-.25-2.89,10.72-5.08L185,105.37s27.72-2.18,33.52-25.39L40.87,106.09S30,107.54,32.16,125Z" transform="translate(-31.88 -46.99)"/></svg>