<svg xmlns="http://www.w3.org/2000/svg" viewBox="0 0 1436.66 202.44"><defs><style>.cls-1,.cls-2{fill:#fff;}.cls-2{opacity:0.7;}</style></defs><title>logo-light</title><g id="Capa_9" data-name="Capa 9"><path class="cls-1" d="M131.06,171.46v43.92l114.59-61.65s9.43-5.8,0-11l-53.3-27.8,43.39-4.19,44.72,25.58s22.64,11.8.89,24.13L126,246s-18.86,11.44-18.86-9.59v-66Z" transform="translate(-83.82 -46.67)"/><path class="cls-1" d="M175.48,76.48,107.12,88.89V60.17s1.45-22.48,21-9.43Z" transform="translate(-83.82 -46.67)"/><polygon class="cls-1" points="142.24 99.97 66.04 104.68 0.09 77.84 8.49 67.56 26.98 67.56 142.24 99.97"/><path class="cls-2" d="M131.06,186.32s-15.27-2.79-23.94,11.18v-24h23.94Z" transform="translate(-83.82 -46.67)"/><path class="cls-1" d="M107.12,166.88s2.9-10.16,16-8l85.76.69,17.23-13H118.73s-11.61-.33-11.17,9Z" transform="translate(-83.82 -46.67)"/><path class="cls-1" d="M107.12,185.48s3.63-8.73,24.66-8.71,47.87-.45,47.87-.45,9.43-1,16-6.79l14.5-10.88H114.38s-7.26-1.45-7.26,7.25Z" transform="translate(-83.82 -46.67)"/><path class="cls-1" d="M270.64,80.36l6.05-17.09-179.31,33S83.6,99,84.06,114.93Z" transform="translate(-83.82 -46.67)"/><path class="cls-1" d="M84.11,124.63s-.25-2.89,10.72-5.08L237,105.05s27.72-2.18,33.52-25.39L92.81,105.77S81.93,107.23,84.11,124.63Z" transform="translate(-83.82 -46.67)"/></g><g id="Capa_7" data-name="Capa 7"><path class="cls-1" d="M336.84,148.42V78.12h46.82V90.76H354v18.65h25.5v12.64H354v26.37Z" transform="translate(-83.82 -46.67)"/><path class="cls-1" d="M441,123V78.12h17.26v42.62c0,21.46-14.78,28.68-32.27,28.68-20.42,0-29-10.92-29-25.37V78.12h17.26v42.93c0,10,3.95,15.54,14.1,15.54C436.57,136.59,441,132.68,441,123Z" transform="translate(-83.82 -46.67)"/><path class="cls-1" d="M493.42,78.12v57.67h29.1v12.63H476.16V78.12Z" transform="translate(-83.82 -46.67)"/><path class="cls-1" d="M550.72,78.12v57.67h29.11v12.63H533.46V78.12Z" transform="translate(-83.82 -46.67)"/><path class="cls-1" d="M603.25,148.42V78.12h42v7.12H612.28v24h29v7.12h-29v25H646.8v7.12Z" transform="translate(-83.82 -46.67)"/><path class="cls-1" d="M671.05,87.65c.22,1.5.34,16.14.34,18.65v42.12h-8.58V78.12h12.64l26.62,44.53c.79,1.4,8.47,14.34,9.14,15.84H712c-.22-2.1-.22-17.25-.22-18.85V78.12h8.46v70.3H707.83L681,103.59c-.79-1.4-8.35-14.24-9-15.94Z" transform="translate(-83.82 -46.67)"/><path class="cls-1" d="M753.4,85.24H732.3V78.12h51.11v7.12h-21v63.18h-9Z" transform="translate(-83.82 -46.67)"/><path class="cls-1" d="M815.22,78.12c16.47,0,26.4,5.72,26.4,19.76,0,11.53-8.35,18.25-17.83,19.15v.4c3.16,1.31,6,3.61,9.59,9l14.55,22H837.22L822.89,126c-3-4.62-6.55-6.72-12.3-6.72h-6.2v29.18h-9V78.12Zm-10.83,34.2h10.15c10.94,0,17.82-3.81,17.82-13.54S825.93,85.24,814,85.24h-9.58Z" transform="translate(-83.82 -46.67)"/><path class="cls-1" d="M861.58,148.42V78.12h42v7.12H870.6v24h29v7.12h-29v25h34.53v7.12Z" transform="translate(-83.82 -46.67)"/><path class="cls-1" d="M932.87,85.24h-21.1V78.12h51.11v7.12h-21v63.18h-9Z" transform="translate(-83.82 -46.67)"/><path class="cls-1" d="M974.83,148.42V78.12h42v7.12H983.86v24h29v7.12h-29v25h34.52v7.12Z" transform="translate(-83.82 -46.67)"/><path class="cls-1" d="M1042.63,87.65c.23,1.5.34,16.14.34,18.65v42.12h-8.58V78.12H1047l26.62,44.53c.8,1.4,8.47,14.34,9.14,15.84h.79c-.22-2.1-.22-17.25-.22-18.85V78.12h8.46v70.3h-12.41l-26.85-44.83c-.79-1.4-8.35-14.24-9-15.94Z" transform="translate(-83.82 -46.67)"/><path class="cls-1" d="M1114.26,78.12h9v70.3h-9Z" transform="translate(-83.82 -46.67)"/><path class="cls-1" d="M1182.85,128.26h.68l22.67-50.14h14.33v70.3h-8.69V87.55h-.67c-6.43,13.64-16.92,37.1-23.35,50.74h-9.6L1155,87.55h-.67v60.87h-8.58V78.12h14.44Z" transform="translate(-83.82 -46.67)"/><path class="cls-1" d="M1243,78.12h9v70.3h-9Z" transform="translate(-83.82 -46.67)"/><path class="cls-1" d="M1274.33,148.42V78.12h42v7.12h-32.94v24h29v7.12h-29v25h34.52v7.12Z" transform="translate(-83.82 -46.67)"/><path class="cls-1" d="M1342.13,87.65c.22,1.5.34,16.14.34,18.65v42.12h-8.58V78.12h12.64l26.63,44.53c.78,1.4,8.46,14.34,9.13,15.84h.79c-.22-2.1-.22-17.25-.22-18.85V78.12h8.46v70.3h-12.41l-26.85-44.83c-.79-1.4-8.35-14.24-9-15.94Z" transform="translate(-83.82 -46.67)"/><path class="cls-1" d="M1424.48,85.24h-21.1V78.12h51.11v7.12h-21v63.18h-9Z" transform="translate(-83.82 -46.67)"/><path class="cls-1" d="M1489.34,149.42c-18.84,0-30.24-9.92-30.24-35.8s12.08-36.5,31.14-36.5c18.73,0,30.24,9.93,30.24,35.8S1508.3,149.42,1489.34,149.42Zm.56-7.22c13.09,0,21.33-6.82,21.33-28.58,0-22-8.46-29.28-21.66-29.28-12.87,0-21.21,6.72-21.21,28.58S1476.82,142.2,1489.9,142.2Z" transform="translate(-83.82 -46.67)"/><path class="cls-1" d="M347.72,213.13V180.58h16.72v2.6H350.51v12.17h12.31V198H350.51v12.58h14.63v2.6Z" transform="translate(-83.82 -46.67)"/><path class="cls-1" d="M388,180.58v29.95h14.53v2.6H385.24V180.58Z" transform="translate(-83.82 -46.67)"/><path class="cls-1" d="M449.55,205.29h.28l10.22-24.71h4.64v32.55H462v-29.3h-.28c-3.34,8-6.91,16.39-10.26,24.43H448l-10.21-24.43h-.28v29.3h-2.74V180.58h4.64Z" transform="translate(-83.82 -46.67)"/><path class="cls-1" d="M487.25,213.13V180.58H504v2.6H490v12.17h12.31V198H490v12.58h14.63v2.6Z" transform="translate(-83.82 -46.67)"/><path class="cls-1" d="M521.61,210.21a9.23,9.23,0,0,0,4.41.93c3,0,4.18-1.35,4.18-4.41V180.58H533v26.15c0,3.9-2.09,7-7.34,7a12.69,12.69,0,0,1-5-.93Z" transform="translate(-83.82 -46.67)"/><path class="cls-1" d="M566.24,213.6C558.62,213.6,554,209,554,197s4.79-16.91,12.59-16.91c7.62,0,12.21,4.65,12.21,16.58C578.82,208.77,574,213.6,566.24,213.6Zm.23-2.65c5.8,0,9.47-3.3,9.47-13.93s-3.71-14.26-9.56-14.26-9.48,3.3-9.48,13.93S560.66,211,566.47,211Z" transform="translate(-83.82 -46.67)"/><path class="cls-1" d="M607.37,180.58c6.65,0,10.73,2.65,10.73,9.06,0,5.24-3.53,8.45-7.47,8.82v.18c1.2.52,2.41,1.54,3.85,4l6.27,10.49h-3.34l-6-10.35c-1.39-2.37-3-3.53-5.62-3.53h-3.11v13.88h-2.79V180.58Zm-4.73,16.11h4.6c4.69,0,8-1.81,8-6.73s-2.92-6.78-8.31-6.78h-4.27Z" transform="translate(-83.82 -46.67)"/><path class="cls-1" d="M654.18,213.13V180.58H670.9v2.6H657v12.17h12.31V198H657v12.58h14.63v2.6Z" transform="translate(-83.82 -46.67)"/><path class="cls-1" d="M694.34,183.83v29.3h-2.65V180.58H696l12.12,22.71,3.53,6.59H712v-29.3h2.6v32.55h-4.28l-12.07-22.61-3.58-6.69Z" transform="translate(-83.82 -46.67)"/><path class="cls-1" d="M742.17,183.18H733.3v-2.6h20.48v2.6H745v29.95h-2.78Z" transform="translate(-83.82 -46.67)"/><path class="cls-1" d="M780,180.58c6.65,0,10.73,2.65,10.73,9.06,0,5.24-3.53,8.45-7.48,8.82v.18c1.21.52,2.42,1.54,3.86,4l6.27,10.49H790l-6-10.35c-1.39-2.37-3-3.53-5.62-3.53h-3.11v13.88h-2.79V180.58Zm-4.73,16.11h4.59c4.7,0,8-1.81,8-6.73s-2.92-6.78-8.31-6.78h-4.27Z" transform="translate(-83.82 -46.67)"/><path class="cls-1" d="M813.3,213.13V180.58H830v2.6H816.09v12.17h12.3V198h-12.3v12.58h14.63v2.6Z" transform="translate(-83.82 -46.67)"/><path class="cls-1" d="M855.79,183.18h-8.87v-2.6H867.4v2.6h-8.83v29.95h-2.78Z" transform="translate(-83.82 -46.67)"/><path class="cls-1" d="M886.06,213.13V180.58h16.72v2.6H888.85v12.17h12.3V198h-12.3v12.58h14.63v2.6Z" transform="translate(-83.82 -46.67)"/><path class="cls-1" d="M926.22,183.83v29.3h-2.64V180.58h4.32L940,203.29l3.53,6.59h.37v-29.3h2.6v32.55h-4.27l-12.08-22.61-3.57-6.69Z" transform="translate(-83.82 -46.67)"/><path class="cls-1" d="M969.55,180.58h2.78v32.55h-2.78Z" transform="translate(-83.82 -46.67)"/><path class="cls-1" d="M1010.18,205.29h.28l10.21-24.71h4.65v32.55h-2.74v-29.3h-.28c-3.35,8-6.92,16.39-10.26,24.43h-3.44l-10.22-24.43h-.28v29.3h-2.74V180.58H1000Z" transform="translate(-83.82 -46.67)"/><path class="cls-1" d="M1048.34,180.58h2.79v32.55h-2.79Z" transform="translate(-83.82 -46.67)"/><path class="cls-1" d="M1074.16,213.13V180.58h16.72v2.6h-13.94v12.17h12.31V198h-12.31v12.58h14.63v2.6Z" transform="translate(-83.82 -46.67)"/><path class="cls-1" d="M1114.32,183.83v29.3h-2.65V180.58H1116l12.12,22.71,3.53,6.59h.37v-29.3h2.61v32.55h-4.28l-12.07-22.61-3.58-6.69Z" transform="translate(-83.82 -46.67)"/><path class="cls-1" d="M1162.15,183.18h-8.87v-2.6h20.48v2.6h-8.83v29.95h-2.78Z" transform="translate(-83.82 -46.67)"/><path class="cls-1" d="M1203.1,213.6c-7.61,0-12.21-4.64-12.21-16.58s4.78-16.91,12.58-16.91c7.62,0,12.22,4.65,12.22,16.58C1215.69,208.77,1210.9,213.6,1203.1,213.6Zm.23-2.65c5.81,0,9.48-3.3,9.48-13.93s-3.72-14.26-9.57-14.26-9.47,3.3-9.47,13.93S1197.53,211,1203.33,211Z" transform="translate(-83.82 -46.67)"/><path class="cls-1" d="M1250.18,213.13V180.58h16.72v2.6H1253v12.17h12.31V198H1253v12.58h14.63v2.6Z" transform="translate(-83.82 -46.67)"/><path class="cls-1" d="M1290.35,183.83v29.3h-2.65V180.58H1292l12.12,22.71,3.53,6.59h.37v-29.3h2.6v32.55h-4.27l-12.08-22.61-3.57-6.69Z" transform="translate(-83.82 -46.67)"/><path class="cls-1" d="M1349.45,180.58v29.95H1364v2.6h-17.32V180.58Z" transform="translate(-83.82 -46.67)"/><path class="cls-1" d="M1383.16,180.58H1386v32.55h-2.79Z" transform="translate(-83.82 -46.67)"/><path class="cls-1" d="M1411.63,183.83v29.3H1409V180.58h4.32l12.12,22.71,3.53,6.59h.37v-29.3h2.6v32.55h-4.27l-12.08-22.61-3.57-6.69Z" transform="translate(-83.82 -46.67)"/><path class="cls-1" d="M1454.49,213.13V180.58h16.71v2.6h-13.93v12.17h12.31V198h-12.31v12.58h14.63v2.6Z" transform="translate(-83.82 -46.67)"/><path class="cls-1" d="M1503.15,180.58l10.72,32.55h-3l-3.3-10H1494l-3.3,10h-2.92l10.73-32.55Zm-8.36,19.92h12l-4.13-12.63-1.77-5.39h-.19l-1.71,5.3Z" transform="translate(-83.82 -46.67)"/></g></svg>