<svg xmlns="http://www.w3.org/2000/svg" width="771.853" height="770.962" viewBox="0 0 771.853 770.962">
  <g id="Grupo_56" data-name="Grupo 56" opacity="0.1">
    <g id="Grupo_37" data-name="Grupo 37" transform="translate(53.85 50.292)">
      <g id="Grupo_36" data-name="Grupo 36" transform="translate(0 0)">
        <path id="Trazado_11" data-name="Trazado 11" d="M-6840.052,5637.58a331.805,331.805,0,0,1-129.963-26.25,332.672,332.672,0,0,1-106.108-71.536,332.687,332.687,0,0,1-71.533-106.107,331.8,331.8,0,0,1-26.252-129.963,331.8,331.8,0,0,1,26.252-129.962,332.743,332.743,0,0,1,71.533-106.11,332.7,332.7,0,0,1,106.108-71.534,331.84,331.84,0,0,1,129.963-26.25,331.833,331.833,0,0,1,129.963,26.25,332.7,332.7,0,0,1,106.109,71.534,332.687,332.687,0,0,1,71.53,106.11,331.716,331.716,0,0,1,26.254,129.962,331.717,331.717,0,0,1-26.254,129.963,332.631,332.631,0,0,1-71.53,106.107,332.676,332.676,0,0,1-106.109,71.536A331.8,331.8,0,0,1-6840.052,5637.58Zm0-592.8c-142.779,0-258.94,116.16-258.94,258.94s116.161,258.94,258.94,258.94,258.941-116.16,258.941-258.94S-6697.271,5044.784-6840.052,5044.784Z" transform="translate(7173.908 -4969.868)" fill="#262626"/>
      </g>
    </g>
    <g id="Grupo_39" data-name="Grupo 39">
      <g id="Grupo_38" data-name="Grupo 38">
        <path id="Trazado_12" data-name="Trazado 12" d="M-7163.682,5137.387H-7238.6V4909.451h222.593v74.916h-147.675Z" transform="translate(7238.6 -4909.451)" fill="#262626"/>
      </g>
    </g>
    <g id="Grupo_41" data-name="Grupo 41" transform="translate(543.917 2.67)">
      <g id="Grupo_40" data-name="Grupo 40" transform="translate(0 0)">
        <path id="Trazado_13" data-name="Trazado 13" d="M-6357.229,5135.257h-74.914V4987.575h-153.021v-74.916h227.936Z" transform="translate(6585.165 -4912.659)" fill="#262626"/>
      </g>
    </g>
    <g id="Grupo_43" data-name="Grupo 43" transform="translate(549.257 543.027)">
      <g id="Grupo_42" data-name="Grupo 42" transform="translate(0 0)">
        <path id="Trazado_14" data-name="Trazado 14" d="M-6356.154,5789.754h-222.594V5714.84h147.679V5561.818h74.915Z" transform="translate(6578.748 -5561.818)" fill="#262626"/>
      </g>
    </g>
    <g id="Grupo_45" data-name="Grupo 45" transform="translate(0 545.697)">
      <g id="Grupo_44" data-name="Grupo 44" transform="translate(0 0)">
        <path id="Trazado_15" data-name="Trazado 15" d="M-7010.664,5787.621H-7238.6v-222.6h74.918v147.681h153.018Z" transform="translate(7238.6 -5565.024)" fill="#262626"/>
      </g>
    </g>
    <g id="Grupo_47" data-name="Grupo 47" transform="translate(555.527 556.131)">
      <g id="Grupo_46" data-name="Grupo 46" transform="translate(0 0)">
        <rect id="Rectángulo_30" data-name="Rectángulo 30" width="74.916" height="198.707" transform="translate(0 52.735) rotate(-44.743)" fill="#262626"/>
      </g>
    </g>
    <g id="Grupo_49" data-name="Grupo 49" transform="translate(14.347 14.952)">
      <g id="Grupo_48" data-name="Grupo 48" transform="translate(0 0)">
        <rect id="Rectángulo_31" data-name="Rectángulo 31" width="74.916" height="198.707" transform="translate(0 52.735) rotate(-44.743)" fill="#262626"/>
      </g>
    </g>
    <g id="Grupo_51" data-name="Grupo 51" transform="translate(361.339 23.41)">
      <g id="Grupo_50" data-name="Grupo 50" transform="translate(0 0)">
        <rect id="Rectángulo_32" data-name="Rectángulo 32" width="471.553" height="74.915" transform="translate(0 331.941) rotate(-44.743)" fill="#262626"/>
      </g>
    </g>
    <g id="Grupo_53" data-name="Grupo 53" transform="translate(17.987 560.558)">
      <g id="Grupo_52" data-name="Grupo 52" transform="translate(0 0)">
        <rect id="Rectángulo_33" data-name="Rectángulo 33" width="198.708" height="74.915" transform="translate(0 139.877) rotate(-44.743)" fill="#262626"/>
      </g>
    </g>
    <g id="Grupo_55" data-name="Grupo 55" transform="translate(258.643 251.326)">
      <g id="Grupo_54" data-name="Grupo 54" transform="translate(0 0)">
        <circle id="Elipse_3" data-name="Elipse 3" cx="129.062" cy="129.062" r="129.062" fill="#262626"/>
      </g>
    </g>
  </g>
</svg>
