<?xml version="1.0" encoding="utf-8"?>
<!-- Generator: Adobe Illustrator 25.4.1, SVG Export Plug-In . SVG Version: 6.00 Build 0)  -->
<svg version="1.1" id="Capa_1" xmlns="http://www.w3.org/2000/svg" xmlns:xlink="http://www.w3.org/1999/xlink" x="0px" y="0px"
	 viewBox="0 0 771.9 771" style="enable-background:new 0 0 771.9 771;" xml:space="preserve">
<style type="text/css">
	.st0{opacity:0.1;}
	.st1{fill:#FFFFFF;}
</style>
<g id="Grupo_56" class="st0">
	<g id="Grupo_37" transform="translate(53.85 50.292)">
		<g id="Grupo_36" transform="translate(0 0)">
			<path id="Trazado_11" class="st1" d="M333.9,667.7c-44.6,0.1-88.8-8.8-130-26.2c-39.7-16.8-75.7-41-106.1-71.5
				C67.3,539.5,43,503.5,26.3,463.8C8.8,422.7-0.1,378.5,0,333.9c-0.1-44.6,8.8-88.8,26.3-130c16.8-39.7,41-75.7,71.5-106.1
				c30.4-30.5,66.4-54.8,106.1-71.5C245,8.8,289.2-0.1,333.9,0c44.6-0.1,88.8,8.8,130,26.2c39.7,16.8,75.7,41,106.1,71.5
				c30.5,30.4,54.8,66.4,71.5,106.1c17.4,41.1,26.3,85.3,26.3,130c0.1,44.6-8.8,88.9-26.3,130c-16.8,39.7-41,75.7-71.5,106.1
				c-30.4,30.5-66.4,54.8-106.1,71.5C422.7,658.9,378.5,667.8,333.9,667.7z M333.9,74.9c-142.8,0-258.9,116.2-258.9,258.9
				s116.2,258.9,258.9,258.9s258.9-116.2,258.9-258.9S476.6,74.9,333.9,74.9L333.9,74.9z"/>
		</g>
	</g>
	<g id="Grupo_39">
		<g id="Grupo_38">
			<path id="Trazado_12" class="st1" d="M74.9,227.9H0V0h222.6v74.9H74.9V227.9z"/>
		</g>
	</g>
	<g id="Grupo_41" transform="translate(543.917 2.67)">
		<g id="Grupo_40" transform="translate(0 0)">
			<path id="Trazado_13" class="st1" d="M227.9,222.6H153V74.9H0V0h227.9L227.9,222.6z"/>
		</g>
	</g>
	<g id="Grupo_43" transform="translate(549.257 543.027)">
		<g id="Grupo_42" transform="translate(0 0)">
			<path id="Trazado_14" class="st1" d="M222.6,227.9H0V153h147.7V0h74.9V227.9z"/>
		</g>
	</g>
	<g id="Grupo_45" transform="translate(0 545.697)">
		<g id="Grupo_44" transform="translate(0 0)">
			<path id="Trazado_15" class="st1" d="M227.9,222.6H0V0h74.9v147.7h153V222.6z"/>
		</g>
	</g>
	<g id="Grupo_47" transform="translate(555.527 556.131)">
		<g id="Grupo_46" transform="translate(0 0)">
			
				<rect id="Rect치ngulo_30" x="59.1" y="-2.4" transform="matrix(0.7103 -0.7039 0.7039 0.7103 -40.2641 96.0443)" class="st1" width="74.9" height="198.7"/>
		</g>
	</g>
	<g id="Grupo_49" transform="translate(14.347 14.952)">
		<g id="Grupo_48" transform="translate(0 0)">
			
				<rect id="Rect치ngulo_31" x="59.1" y="-2.4" transform="matrix(0.7103 -0.7039 0.7039 0.7103 -40.2641 96.0443)" class="st1" width="74.9" height="198.7"/>
		</g>
	</g>
	<g id="Grupo_51" transform="translate(361.339 23.41)">
		<g id="Grupo_50" transform="translate(0 0)">
			
				<rect id="Rect치ngulo_32" x="-41.9" y="155.1" transform="matrix(0.7103 -0.7039 0.7039 0.7103 -79.401 192.2391)" class="st1" width="471.6" height="74.9"/>
		</g>
	</g>
	<g id="Grupo_53" transform="translate(17.987 560.558)">
		<g id="Grupo_52" transform="translate(0 0)">
			
				<rect id="Rect치ngulo_33" x="-2.4" y="59.1" transform="matrix(0.7103 -0.7039 0.7039 0.7103 -39.8749 96.2073)" class="st1" width="198.7" height="74.9"/>
		</g>
	</g>
	<g id="Grupo_55" transform="translate(258.643 251.326)">
		<g id="Grupo_54" transform="translate(0 0)">
			<circle id="Elipse_3" class="st1" cx="129.1" cy="129.1" r="129.1"/>
		</g>
	</g>
</g>
</svg>
