<svg xmlns="http://www.w3.org/2000/svg" width="175.504" height="47.136" viewBox="0 0 175.504 47.136">
  <g id="Grupo_199" data-name="Grupo 199" transform="translate(-1604.987 -983.833)">
    <g id="Grupo_24" data-name="Grupo 24" transform="translate(1604.988 983.833)">
      <g id="Grupo_2" data-name="Grupo 2" transform="translate(3.292 3.075)">
        <g id="Grupo_1" data-name="Grupo 1" transform="translate(0 0)">
          <path id="Trazado_1" data-name="Trazado 1" d="M-7153.5,5010.692a20.287,20.287,0,0,1-7.946-1.6,20.379,20.379,0,0,1-6.488-4.373,20.368,20.368,0,0,1-4.373-6.489,20.289,20.289,0,0,1-1.605-7.945,20.292,20.292,0,0,1,1.605-7.946,20.341,20.341,0,0,1,4.373-6.488,20.351,20.351,0,0,1,6.488-4.375,20.287,20.287,0,0,1,7.946-1.6,20.29,20.29,0,0,1,7.947,1.6,20.349,20.349,0,0,1,6.488,4.375,20.342,20.342,0,0,1,4.373,6.488,20.274,20.274,0,0,1,1.6,7.946,20.271,20.271,0,0,1-1.6,7.945,20.37,20.37,0,0,1-4.373,6.489,20.377,20.377,0,0,1-6.488,4.373A20.29,20.29,0,0,1-7153.5,5010.692Zm0-36.244a15.85,15.85,0,0,0-15.831,15.833,15.85,15.85,0,0,0,15.831,15.832,15.852,15.852,0,0,0,15.833-15.832A15.851,15.851,0,0,0-7153.5,4974.448Z" transform="translate(7173.909 -4969.868)" fill="#ffc813"/>
        </g>
      </g>
      <g id="Grupo_4" data-name="Grupo 4" transform="translate(0 0)">
        <g id="Grupo_3" data-name="Grupo 3" transform="translate(0)">
          <path id="Trazado_2" data-name="Trazado 2" d="M-7234.02,4923.388h-4.581v-13.937h13.61v4.581h-9.029Z" transform="translate(7238.601 -4909.451)" fill="#ffc813"/>
        </g>
      </g>
      <g id="Grupo_6" data-name="Grupo 6" transform="translate(33.255 0.164)">
        <g id="Grupo_5" data-name="Grupo 5" transform="translate(0 0)">
          <path id="Trazado_3" data-name="Trazado 3" d="M-6571.228,4926.269h-4.581v-9.03h-9.355v-4.58h13.936Z" transform="translate(6585.164 -4912.658)" fill="#ffc813"/>
        </g>
      </g>
      <g id="Grupo_8" data-name="Grupo 8" transform="translate(33.582 33.201)">
        <g id="Grupo_7" data-name="Grupo 7" transform="translate(0 0)">
          <path id="Trazado_4" data-name="Trazado 4" d="M-6565.139,5575.753h-13.611v-4.58h9.03v-9.356h4.581Z" transform="translate(6578.75 -5561.817)" fill="#ffc813"/>
        </g>
      </g>
      <g id="Grupo_10" data-name="Grupo 10" transform="translate(0 33.364)">
        <g id="Grupo_9" data-name="Grupo 9" transform="translate(0 0)">
          <path id="Trazado_5" data-name="Trazado 5" d="M-7224.665,5578.634H-7238.6v-13.609h4.581v9.03h9.355Z" transform="translate(7238.601 -5565.025)" fill="#ffc813"/>
        </g>
      </g>
      <g id="Grupo_12" data-name="Grupo 12" transform="translate(33.965 34.003)">
        <g id="Grupo_11" data-name="Grupo 11" transform="translate(0 0)">
          <rect id="Rectángulo_3" data-name="Rectángulo 3" width="4.58" height="12.149" transform="translate(0 3.224) rotate(-44.743)" fill="#ffc813"/>
        </g>
      </g>
      <g id="Grupo_14" data-name="Grupo 14" transform="translate(0.877 0.914)">
        <g id="Grupo_13" data-name="Grupo 13" transform="translate(0 0)">
          <rect id="Rectángulo_4" data-name="Rectángulo 4" width="4.58" height="12.149" transform="translate(0 3.224) rotate(-44.743)" fill="#ffc813"/>
        </g>
      </g>
      <g id="Grupo_16" data-name="Grupo 16" transform="translate(22.092 1.431)">
        <g id="Grupo_15" data-name="Grupo 15" transform="translate(0 0)">
          <rect id="Rectángulo_5" data-name="Rectángulo 5" width="28.831" height="4.58" transform="translate(0 20.295) rotate(-44.743)" fill="#ffc813"/>
        </g>
      </g>
      <g id="Grupo_18" data-name="Grupo 18" transform="translate(1.1 34.274)">
        <g id="Grupo_17" data-name="Grupo 17" transform="translate(0 0)">
          <rect id="Rectángulo_6" data-name="Rectángulo 6" width="12.149" height="4.58" transform="translate(0 8.552) rotate(-44.743)" fill="#ffc813"/>
        </g>
      </g>
      <g id="Grupo_20" data-name="Grupo 20" transform="translate(15.814 15.366)">
        <g id="Grupo_19" data-name="Grupo 19" transform="translate(0 0)">
          <circle id="Elipse_1" data-name="Elipse 1" cx="7.891" cy="7.891" r="7.891" fill="#ffc813"/>
        </g>
      </g>
      <g id="Grupo_22" data-name="Grupo 22" transform="translate(62.78 11.381)">
        <g id="Grupo_21" data-name="Grupo 21" transform="translate(0 0)">
          <path id="Trazado_6" data-name="Trazado 6" d="M-5979.162,5150.461a13.286,13.286,0,0,1-12.608,9.125,13.268,13.268,0,0,1-13.253-13.252,13.267,13.267,0,0,1,13.253-13.253,13.216,13.216,0,0,1,12.569,9.05h-6.323a6.885,6.885,0,0,0-6.247-3.749,7.743,7.743,0,0,0-7.5,7.953,7.719,7.719,0,0,0,7.5,7.951,7.037,7.037,0,0,0,6.284-3.824Z" transform="translate(6005.024 -5133.081)" fill="#ffc813"/>
          <path id="Trazado_7" data-name="Trazado 7" d="M-5432.545,5327.973h-5.681v-2.005c-1.134,1.7-3.6,2.384-5.717,2.384a8.528,8.528,0,0,1-8.292-8.708,8.562,8.562,0,0,1,8.292-8.747,7.036,7.036,0,0,1,5.717,2.423v-2.006h5.681Zm-9.656-12.494a4.09,4.09,0,0,0-3.975,4.165,4.09,4.09,0,0,0,3.975,4.165,4.089,4.089,0,0,0,3.975-4.165A4.089,4.089,0,0,0-5442.2,5315.479Z" transform="translate(5480.368 -5301.847)" fill="#ffc813"/>
          <path id="Trazado_8" data-name="Trazado 8" d="M-4976.08,5337.44v-26.166h5.68v2.045a6.992,6.992,0,0,1,5.718-2.423,8.562,8.562,0,0,1,8.292,8.747,8.528,8.528,0,0,1-8.292,8.708c-2.159,0-4.582-.681-5.718-2.384v11.473Zm9.655-13.632a4.09,4.09,0,0,0,3.976-4.165,4.09,4.09,0,0,0-3.976-4.165,4.09,4.09,0,0,0-3.976,4.165A4.09,4.09,0,0,0-4966.425,5323.809Z" transform="translate(5028.447 -5301.847)" fill="#ffc813"/>
          <path id="Trazado_9" data-name="Trazado 9" d="M-4541.877,5335.036h-17.569l8.785-12.382h-8.027v-4.317h16.737l-8.028,12.192h8.1Z" transform="translate(4633.017 -5308.908)" fill="#ffc813"/>
          <path id="Trazado_10" data-name="Trazado 10" d="M-4157.346,5327.973h-5.68v-2.005c-1.137,1.7-3.6,2.384-5.718,2.384a8.528,8.528,0,0,1-8.293-8.708,8.562,8.562,0,0,1,8.293-8.747,7.039,7.039,0,0,1,5.718,2.423v-2.006h5.68Zm-9.655-12.494a4.09,4.09,0,0,0-3.977,4.165,4.09,4.09,0,0,0,3.977,4.165,4.09,4.09,0,0,0,3.975-4.165A4.09,4.09,0,0,0-4167,5315.479Z" transform="translate(4270.068 -5301.847)" fill="#ffc813"/>
        </g>
      </g>
    </g>
  </g>
</svg>
