<?xml version="1.0" encoding="utf-8"?>
<!-- Generator: Adobe Illustrator 25.4.1, SVG Export Plug-In . SVG Version: 6.00 Build 0)  -->
<svg version="1.1" xmlns="http://www.w3.org/2000/svg" xmlns:xlink="http://www.w3.org/1999/xlink" x="0px" y="0px"
	 viewBox="0 0 47.2 47.1" style="enable-background:new 0 0 47.2 47.1;" xml:space="preserve">
<style type="text/css">
	.st0{fill:#262626;}
</style>
<g id="Capa_1">
	<g id="Grupo_199" transform="translate(-1604.987 -983.833)">
		<g id="Grupo_24" transform="translate(1604.988 983.833)">
			<g id="Grupo_2" transform="translate(3.292 3.075)">
				<g id="Grupo_1" transform="translate(0 0)">
					<path id="Trazado_1" class="st0" d="M20.4,40.8c-2.7,0-5.4-0.5-7.9-1.6c-2.4-1-4.6-2.5-6.5-4.4c-1.9-1.9-3.3-4.1-4.4-6.5
						C0.5,25.8,0,23.1,0,20.4c0-2.7,0.5-5.4,1.6-7.9C2.6,10,4.1,7.8,6,6c1.9-1.9,4.1-3.4,6.5-4.4C15,0.5,17.7,0,20.4,0
						c2.7,0,5.4,0.5,7.9,1.6c2.4,1,4.6,2.5,6.5,4.4c1.9,1.9,3.3,4.1,4.4,6.5c1.1,2.5,1.6,5.2,1.6,7.9c0,2.7-0.5,5.4-1.6,7.9
						c-1,2.4-2.5,4.6-4.4,6.5c-1.9,1.9-4.1,3.3-6.5,4.4C25.8,40.3,23.1,40.8,20.4,40.8z M20.4,4.6c-8.7,0-15.8,7.1-15.8,15.8
						c0,8.7,7.1,15.8,15.8,15.8c8.7,0,15.8-7.1,15.8-15.8C36.2,11.7,29.1,4.6,20.4,4.6L20.4,4.6z"/>
				</g>
			</g>
			<g id="Grupo_4" transform="translate(0 0)">
				<g id="Grupo_3" transform="translate(0)">
					<path id="Trazado_2" class="st0" d="M4.6,13.9H0V0h13.6v4.6h-9V13.9z"/>
				</g>
			</g>
			<g id="Grupo_6" transform="translate(33.255 0.164)">
				<g id="Grupo_5" transform="translate(0 0)">
					<path id="Trazado_3" class="st0" d="M13.9,13.6H9.4v-9H0V0h13.9V13.6z"/>
				</g>
			</g>
			<g id="Grupo_8" transform="translate(33.582 33.201)">
				<g id="Grupo_7" transform="translate(0 0)">
					<path id="Trazado_4" class="st0" d="M13.6,13.9H0V9.4h9V0h4.6V13.9z"/>
				</g>
			</g>
			<g id="Grupo_10" transform="translate(0 33.364)">
				<g id="Grupo_9" transform="translate(0 0)">
					<path id="Trazado_5" class="st0" d="M13.9,13.6H0V0h4.6v9h9.4L13.9,13.6z"/>
				</g>
			</g>
			<g id="Grupo_12" transform="translate(33.965 34.003)">
				<g id="Grupo_11" transform="translate(0 0)">
					
						<rect id="Rect치ngulo_3" x="3.6" y="-0.1" transform="matrix(0.7103 -0.7039 0.7039 0.7103 -2.4617 5.872)" class="st0" width="4.6" height="12.1"/>
				</g>
			</g>
			<g id="Grupo_14" transform="translate(0.877 0.914)">
				<g id="Grupo_13" transform="translate(0 0)">
					
						<rect id="Rect치ngulo_4" x="3.6" y="-0.1" transform="matrix(0.7103 -0.7039 0.7039 0.7103 -2.4617 5.872)" class="st0" width="4.6" height="12.1"/>
				</g>
			</g>
			<g id="Grupo_16" transform="translate(22.092 1.431)">
				<g id="Grupo_15" transform="translate(0 0)">
					
						<rect id="Rect치ngulo_5" x="-2.6" y="9.5" transform="matrix(0.7103 -0.7039 0.7039 0.7103 -4.8545 11.7535)" class="st0" width="28.8" height="4.6"/>
				</g>
			</g>
			<g id="Grupo_18" transform="translate(1.1 34.274)">
				<g id="Grupo_17" transform="translate(0 0)">
					
						<rect id="Rect치ngulo_6" x="-0.1" y="3.6" transform="matrix(0.7103 -0.7039 0.7039 0.7103 -2.4379 5.882)" class="st0" width="12.1" height="4.6"/>
				</g>
			</g>
			<g id="Grupo_20" transform="translate(15.814 15.366)">
				<g id="Grupo_19" transform="translate(0 0)">
					<circle id="Elipse_1" class="st0" cx="7.9" cy="7.9" r="7.9"/>
				</g>
			</g>
		</g>
	</g>
</g>
<g id="Capa_2">
</g>
</svg>
